<svg width="26" height="26" viewBox="0 0 26 26" fill="none" xmlns="http://www.w3.org/2000/svg">
<path d="M11.291 0.709961C11.4654 0.683128 11.5736 0.710956 11.6514 0.753906C11.7926 0.831904 11.8937 0.926523 11.9678 1.03711C12.0279 1.12711 12.0709 1.24443 12.0781 1.41211C12.0825 1.51348 12.0561 1.62809 11.9502 1.77246L11.9385 1.78711L11.9287 1.80273C11.4962 2.46427 11.1695 3.16789 10.9512 3.91113C10.76 4.5619 10.6537 5.23864 10.6309 5.93945L10.626 6.24023C10.626 8.52075 11.4326 10.4824 13.0332 12.083C14.6338 13.6834 16.5947 14.4893 18.875 14.4893C19.6659 14.4893 20.4491 14.3745 21.2227 14.1465C21.9904 13.9201 22.6874 13.6021 23.3076 13.1895C23.4578 13.0945 23.5797 13.0694 23.6855 13.0742C23.8597 13.0821 23.9906 13.1217 24.0938 13.1787L24.1064 13.1855L24.1201 13.1924C24.2235 13.2441 24.3015 13.3169 24.3633 13.4287C24.402 13.4989 24.4361 13.6173 24.4053 13.8291L24.4023 13.8447L24.4014 13.8594C24.0928 16.9008 22.8062 19.406 20.5283 21.4092C18.2438 23.4182 15.6054 24.416 12.583 24.416C9.24541 24.4159 6.44776 23.2689 4.14746 20.9678C1.84713 18.6665 0.700192 15.8689 0.699219 12.5322C0.699219 9.48424 1.68734 6.85937 3.66895 4.62402C5.64806 2.39158 8.16941 1.08845 11.2695 0.712891L11.2803 0.710938L11.291 0.709961ZM8.64746 2.79688C6.7037 3.59436 5.12269 4.87046 3.91602 6.61133C2.70157 8.36353 2.09668 10.3444 2.09766 12.5322L2.10938 13.0693C2.23 15.7296 3.2538 18.0331 5.16797 19.9473C7.20984 21.9891 9.69472 23.0185 12.583 23.0186C14.7709 23.0186 16.7517 22.4118 18.5039 21.1973C20.2447 19.9906 21.5209 18.4107 22.3184 16.4678L22.8428 15.1885L21.502 15.5244C21.0574 15.6356 20.6132 15.7235 20.1699 15.79C19.7378 15.8549 19.306 15.8877 18.875 15.8877C16.1932 15.8877 13.9301 14.9525 12.0459 13.0684C10.1617 11.1841 9.22667 8.92105 9.22754 6.24023C9.22754 5.80943 9.26042 5.37825 9.3252 4.94629C9.39172 4.50281 9.48061 4.05802 9.5918 3.61328L9.92676 2.27246L8.64746 2.79688Z" stroke="white" stroke-width="1.39815"/>
</svg>
