<svg width="27" height="40" viewBox="0 0 27 40" fill="none" xmlns="http://www.w3.org/2000/svg">
<path d="M0 38.6914C0.716532 36.7806 1.42829 34.869 2.15119 32.9606C4.65984 26.3346 7.17248 19.7102 9.68273 13.085C9.69229 13.0601 9.69229 13.0328 9.69706 13.0063C9.90247 12.6956 9.92158 12.3881 9.76474 12.0349C9.45026 11.3291 9.17718 10.605 8.87942 9.89202C8.27913 8.4533 7.70431 7.00253 7.06102 5.58308C6.55388 4.46309 5.67334 3.86496 4.40508 3.94043C4.0285 3.96291 3.64953 3.94364 3.21802 3.94364V0.634258C3.23235 0.531492 3.24669 0.428726 3.2642 0.303481C3.79603 0.200715 4.3175 0.100357 4.83818 0C5.44883 0 6.05867 0 6.66932 0C6.88189 0.0489744 7.09207 0.111597 7.30624 0.14612C9.43195 0.482518 10.8937 1.69564 11.6779 3.67709C13.0162 7.06114 14.2908 10.4717 15.5893 13.8718C17.9778 20.1245 20.3622 26.3787 22.7539 32.6306C22.882 32.9662 23.0476 33.2873 23.2061 33.6101C23.6734 34.5623 24.4011 35.0833 25.491 35.0078C25.7259 34.9918 25.9631 35.0054 26.229 35.0054C26.2386 35.093 26.2521 35.2086 26.2657 35.3242C26.3039 36.4835 26.3421 37.642 26.3811 38.827C26.2593 38.8696 26.1391 38.921 26.0141 38.9531C25.2267 39.1546 24.4321 39.1667 23.6201 39.1297C21.6823 39.0422 20.1927 38.2418 19.332 36.4602C18.7477 35.2503 18.2246 34.0067 17.7358 32.7534C16.3895 29.2987 15.0766 25.8304 13.7494 22.3676C13.3171 21.2396 12.8809 20.114 12.4462 18.9868C12.4143 18.986 12.3817 18.9852 12.3498 18.9844C9.9582 25.5558 7.56737 32.128 5.17893 38.6914H0Z" fill="white"/>
</svg>
