<svg width="25" height="25" viewBox="0 0 25 25" fill="none" xmlns="http://www.w3.org/2000/svg">
<path d="M9.08789 0.699219C11.4447 0.699219 13.4162 1.50871 15.0439 3.13477C16.6709 4.76024 17.4791 6.72991 17.4766 9.08691V9.08789C17.4766 10.0377 17.3257 10.9245 17.0283 11.7529C16.7261 12.5947 16.3198 13.3296 15.8125 13.9639L15.4219 14.4531L23.6934 22.7246C23.8057 22.837 23.873 22.9795 23.873 23.209C23.873 23.4387 23.8058 23.5809 23.6934 23.6934C23.5809 23.8058 23.4387 23.873 23.209 23.873C22.9795 23.873 22.837 23.8057 22.7246 23.6934L14.4531 15.4219L13.9639 15.8125C13.3296 16.3198 12.5947 16.7261 11.7529 17.0283C10.9245 17.3257 10.0377 17.4766 9.08789 17.4766C6.72909 17.4765 4.7585 16.6676 3.13379 15.042C1.50903 13.4163 0.700126 11.4457 0.699219 9.08789C0.698353 6.73026 1.50721 4.75951 3.13379 3.13379C4.76054 1.50796 6.73116 0.699236 9.08789 0.699219ZM9.08887 2.09766C7.15554 2.0956 5.49078 2.77944 4.13672 4.13867C2.7842 5.49637 2.10075 7.15925 2.09766 9.08691C2.09458 11.0163 2.77883 12.6812 4.1377 14.04C5.49619 15.3984 7.15989 16.0819 9.08789 16.0781L9.08984 16.0791L9.08887 16.0781C11.0192 16.0779 12.6829 15.395 14.0391 14.04C15.3957 12.6844 16.0801 11.0198 16.0791 9.08789C16.0781 7.15656 15.3946 5.49238 14.04 4.1377C12.6854 2.78302 11.0209 2.09975 9.08887 2.09766Z" stroke="white" stroke-width="1.39815"/>
</svg>
