<svg width="144" height="213" viewBox="0 0 144 213" fill="none" xmlns="http://www.w3.org/2000/svg">
<path d="M0 209.825C3.88579 199.463 7.74566 189.096 11.666 178.747C25.2706 142.814 38.8967 106.889 52.5099 70.9605C52.5617 70.8255 52.5617 70.6775 52.5876 70.5338C53.7015 68.8488 53.8052 67.1813 52.9546 65.2655C51.2492 61.4384 49.7683 57.5112 48.1535 53.6449C44.8981 45.8426 41.7808 37.9751 38.2923 30.2773C35.542 24.2036 30.7668 20.9599 23.8889 21.3691C21.8467 21.491 19.7916 21.3866 17.4515 21.3866V3.43961C17.5292 2.88231 17.6069 2.325 17.7019 1.64579C20.586 1.08849 23.414 0.544242 26.2377 0C29.5492 0 32.8565 0 36.168 0C37.3208 0.26559 38.4606 0.605198 39.6221 0.792417C51.1499 2.61672 59.0769 9.19552 63.3297 19.941C70.5874 38.2929 77.4998 56.7884 84.5417 75.2274C97.4943 109.136 110.425 143.053 123.395 176.957C124.09 178.777 124.988 180.519 125.848 182.269C128.382 187.433 132.328 190.258 138.239 189.849C139.513 189.762 140.799 189.836 142.241 189.836C142.293 190.311 142.367 190.938 142.44 191.565C142.647 197.852 142.854 204.134 143.066 210.561C142.405 210.792 141.753 211.07 141.076 211.244C136.806 212.337 132.497 212.403 128.093 212.202C117.584 211.728 109.506 207.387 104.838 197.725C101.669 191.164 98.8328 184.42 96.1818 177.623C88.8809 158.888 81.7612 140.079 74.5639 121.301C72.2195 115.183 69.8535 109.079 67.4961 102.966C67.3234 102.962 67.1464 102.958 66.9737 102.953C54.0038 138.59 41.0382 174.232 28.0856 209.825H0Z" fill="#D05CFF"/>
</svg>
