<svg width="312" height="84" viewBox="0 0 312 84" fill="none" xmlns="http://www.w3.org/2000/svg">
<path d="M68.7844 78.1821V65.7186H63.9636V64.4644H75.0554V65.7186H70.2346V78.1821H68.7844ZM82.33 67.7959C83.1662 67.7959 83.8978 67.9592 84.5249 68.2858C85.165 68.5993 85.6615 69.0827 86.0142 69.736C86.38 70.3892 86.5629 71.2122 86.5629 72.2051V78.1821H85.1715V72.3423C85.1715 71.258 84.8972 70.4414 84.3485 69.8927C83.8128 69.331 83.0551 69.0501 82.0753 69.0501C81.3437 69.0501 80.7035 69.2003 80.1548 69.5008C79.6192 69.7882 79.2011 70.2128 78.9006 70.7746C78.6132 71.3233 78.4695 71.9896 78.4695 72.7734V78.1821H77.0781V63.6414H78.4695V70.7158L78.1951 70.1867C78.5217 69.442 79.0443 68.8606 79.7629 68.4426C80.4814 68.0114 81.3371 67.7959 82.33 67.7959ZM94.6913 78.2801C93.62 78.2801 92.6793 78.058 91.8693 77.6138C91.0593 77.1566 90.4257 76.536 89.9685 75.7521C89.5112 74.9552 89.2826 74.0472 89.2826 73.0282C89.2826 72.0092 89.4981 71.1077 89.9293 70.3239C90.3734 69.54 90.9744 68.926 91.7322 68.4818C92.503 68.0245 93.3652 67.7959 94.3189 67.7959C95.2857 67.7959 96.1414 68.018 96.8861 68.4622C97.6438 68.8933 98.2383 69.5073 98.6694 70.3043C99.1005 71.0881 99.3161 71.9961 99.3161 73.0282C99.3161 73.0935 99.3095 73.1654 99.2965 73.2438C99.2965 73.3091 99.2965 73.3809 99.2965 73.4593H90.3408V72.4207H98.5518L98.0031 72.8322C98.0031 72.0876 97.8398 71.4278 97.5132 70.853C97.1996 70.2651 96.7685 69.8078 96.2198 69.4812C95.6711 69.1546 95.0375 68.9913 94.3189 68.9913C93.6134 68.9913 92.9798 69.1546 92.418 69.4812C91.8563 69.8078 91.4186 70.2651 91.1051 70.853C90.7915 71.4409 90.6347 72.1137 90.6347 72.8714V73.087C90.6347 73.8709 90.8046 74.5633 91.1443 75.1642C91.497 75.7521 91.9804 76.2159 92.5944 76.5556C93.2215 76.8822 93.9335 77.0455 94.7304 77.0455C95.3575 77.0455 95.9389 76.9345 96.4746 76.7124C97.0233 76.4903 97.4936 76.1506 97.8855 75.6933L98.6694 76.5948C98.2121 77.1435 97.6373 77.5616 96.9449 77.849C96.2655 78.1364 95.5143 78.2801 94.6913 78.2801ZM111.353 78.2997C110.334 78.2997 109.354 78.1364 108.414 77.8098C107.486 77.4701 106.767 77.039 106.258 76.5164L106.826 75.3994C107.31 75.8697 107.956 76.2682 108.766 76.5948C109.589 76.9083 110.452 77.0651 111.353 77.0651C112.215 77.0651 112.914 76.9606 113.45 76.7516C113.999 76.5295 114.397 76.2355 114.645 75.8697C114.907 75.5039 115.037 75.0989 115.037 74.6547C115.037 74.1191 114.88 73.688 114.567 73.3613C114.266 73.0347 113.868 72.78 113.371 72.5971C112.875 72.4011 112.326 72.2313 111.725 72.0876C111.124 71.9438 110.523 71.7936 109.922 71.6368C109.322 71.467 108.766 71.2449 108.257 70.9705C107.76 70.6962 107.355 70.3369 107.042 69.8927C106.741 69.4355 106.591 68.841 106.591 68.1094C106.591 67.4301 106.767 66.8095 107.12 66.2477C107.486 65.6729 108.041 65.2156 108.786 64.876C109.531 64.5232 110.484 64.3469 111.647 64.3469C112.418 64.3469 113.182 64.4579 113.94 64.68C114.698 64.889 115.351 65.183 115.899 65.5619L115.41 66.7181C114.822 66.3261 114.195 66.0387 113.528 65.8558C112.875 65.6729 112.241 65.5815 111.627 65.5815C110.804 65.5815 110.125 65.6925 109.589 65.9146C109.054 66.1367 108.655 66.4372 108.394 66.816C108.146 67.1819 108.022 67.5999 108.022 68.0702C108.022 68.6059 108.172 69.037 108.472 69.3636C108.786 69.6902 109.191 69.945 109.687 70.1279C110.197 70.3108 110.752 70.4741 111.353 70.6178C111.954 70.7615 112.548 70.9183 113.136 71.0881C113.737 71.258 114.286 71.4801 114.782 71.7544C115.292 72.0157 115.697 72.3684 115.997 72.8126C116.311 73.2568 116.468 73.8382 116.468 74.5567C116.468 75.223 116.285 75.8436 115.919 76.4184C115.553 76.9802 114.991 77.4375 114.234 77.7902C113.489 78.1299 112.529 78.2997 111.353 78.2997ZM123.527 78.2801C122.534 78.2801 121.639 78.058 120.842 77.6138C120.059 77.1566 119.438 76.536 118.981 75.7521C118.523 74.9552 118.295 74.0472 118.295 73.0282C118.295 71.9961 118.523 71.0881 118.981 70.3043C119.438 69.5204 120.059 68.9064 120.842 68.4622C121.626 68.018 122.521 67.7959 123.527 67.7959C124.546 67.7959 125.448 68.018 126.232 68.4622C127.028 68.9064 127.649 69.5204 128.093 70.3043C128.55 71.0881 128.779 71.9961 128.779 73.0282C128.779 74.0472 128.55 74.9552 128.093 75.7521C127.649 76.536 127.028 77.1566 126.232 77.6138C125.435 78.058 124.533 78.2801 123.527 78.2801ZM123.527 77.0455C124.272 77.0455 124.932 76.8822 125.506 76.5556C126.081 76.2159 126.532 75.7456 126.859 75.1446C127.198 74.5306 127.368 73.8251 127.368 73.0282C127.368 72.2182 127.198 71.5127 126.859 70.9118C126.532 70.3108 126.081 69.847 125.506 69.5204C124.932 69.1807 124.278 69.0109 123.547 69.0109C122.815 69.0109 122.162 69.1807 121.587 69.5204C121.012 69.847 120.555 70.3108 120.215 70.9118C119.876 71.5127 119.706 72.2182 119.706 73.0282C119.706 73.8251 119.876 74.5306 120.215 75.1446C120.555 75.7456 121.012 76.2159 121.587 76.5556C122.162 76.8822 122.809 77.0455 123.527 77.0455ZM131.855 78.1821V66.6005C131.855 65.686 132.123 64.9478 132.658 64.3861C133.194 63.8243 133.965 63.5434 134.971 63.5434C135.363 63.5434 135.742 63.5957 136.107 63.7002C136.473 63.8047 136.78 63.968 137.028 64.1901L136.558 65.2287C136.362 65.0589 136.133 64.9348 135.872 64.8564C135.611 64.7649 135.33 64.7192 135.03 64.7192C134.442 64.7192 133.991 64.8825 133.677 65.2091C133.364 65.5357 133.207 66.0191 133.207 66.6593V68.227L133.246 68.8737V78.1821H131.855ZM130.013 69.0501V67.8939H136.382V69.0501H130.013ZM141.513 78.2801C140.547 78.2801 139.802 78.0188 139.279 77.4962C138.757 76.9737 138.496 76.2355 138.496 75.2818V65.6206H139.887V75.2034C139.887 75.8044 140.037 76.2682 140.338 76.5948C140.651 76.9214 141.095 77.0847 141.67 77.0847C142.284 77.0847 142.794 76.9083 143.199 76.5556L143.689 77.555C143.414 77.8033 143.081 77.9862 142.689 78.1037C142.31 78.2213 141.918 78.2801 141.513 78.2801ZM136.653 69.0501V67.8939H143.022V69.0501H136.653ZM148.127 78.1821L144.247 67.8939H145.579L149.107 77.4375H148.499L152.125 67.8939H153.32L156.906 77.4375H156.299L159.885 67.8939H161.159L157.259 78.1821H155.946L152.497 69.2068H152.909L149.44 78.1821H148.127ZM169.395 78.1821V75.9089L169.336 75.5366V71.7348C169.336 70.8595 169.088 70.1867 168.591 69.7164C168.108 69.246 167.383 69.0109 166.416 69.0109C165.75 69.0109 165.116 69.1219 164.515 69.344C163.914 69.5661 163.405 69.8601 162.987 70.2259L162.36 69.1872C162.882 68.7431 163.509 68.4034 164.241 68.1682C164.973 67.92 165.743 67.7959 166.553 67.7959C167.886 67.7959 168.912 68.129 169.63 68.7953C170.362 69.4485 170.727 70.448 170.727 71.7936V78.1821H169.395ZM165.848 78.2801C165.077 78.2801 164.404 78.156 163.829 77.9078C163.268 77.6465 162.837 77.2937 162.536 76.8496C162.236 76.3923 162.085 75.8697 162.085 75.2818C162.085 74.7462 162.209 74.2628 162.458 73.8317C162.719 73.3875 163.137 73.0347 163.712 72.7734C164.3 72.4991 165.084 72.3619 166.063 72.3619H169.61V73.4005H166.103C165.11 73.4005 164.417 73.5769 164.025 73.9296C163.647 74.2824 163.457 74.72 163.457 75.2426C163.457 75.8305 163.686 76.3008 164.143 76.6536C164.6 77.0063 165.24 77.1827 166.063 77.1827C166.847 77.1827 167.52 77.0063 168.082 76.6536C168.657 76.2878 169.075 75.7652 169.336 75.0859L169.65 76.0461C169.388 76.7254 168.931 77.2676 168.278 77.6726C167.638 78.0776 166.828 78.2801 165.848 78.2801ZM174.507 78.1821V67.8939H175.839V70.6962L175.702 70.2063C175.989 69.4224 176.473 68.828 177.152 68.423C177.831 68.0049 178.674 67.7959 179.68 67.7959V69.1481C179.628 69.1481 179.576 69.1481 179.523 69.1481C179.471 69.135 179.419 69.1285 179.367 69.1285C178.282 69.1285 177.433 69.4616 176.819 70.1279C176.205 70.7811 175.898 71.7152 175.898 72.9302V78.1821H174.507ZM186.493 78.2801C185.422 78.2801 184.481 78.058 183.671 77.6138C182.861 77.1566 182.228 76.536 181.771 75.7521C181.313 74.9552 181.085 74.0472 181.085 73.0282C181.085 72.0092 181.3 71.1077 181.731 70.3239C182.176 69.54 182.777 68.926 183.534 68.4818C184.305 68.0245 185.167 67.7959 186.121 67.7959C187.088 67.7959 187.943 68.018 188.688 68.4622C189.446 68.8933 190.04 69.5073 190.471 70.3043C190.903 71.0881 191.118 71.9961 191.118 73.0282C191.118 73.0935 191.112 73.1654 191.099 73.2438C191.099 73.3091 191.099 73.3809 191.099 73.4593H182.143V72.4207H190.354L189.805 72.8322C189.805 72.0876 189.642 71.4278 189.315 70.853C189.002 70.2651 188.571 69.8078 188.022 69.4812C187.473 69.1546 186.84 68.9913 186.121 68.9913C185.416 68.9913 184.782 69.1546 184.22 69.4812C183.658 69.8078 183.221 70.2651 182.907 70.853C182.594 71.4409 182.437 72.1137 182.437 72.8714V73.087C182.437 73.8709 182.607 74.5633 182.946 75.1642C183.299 75.7521 183.782 76.2159 184.396 76.5556C185.024 76.8822 185.736 77.0455 186.533 77.0455C187.16 77.0455 187.741 76.9345 188.277 76.7124C188.825 76.4903 189.296 76.1506 189.688 75.6933L190.471 76.5948C190.014 77.1435 189.439 77.5616 188.747 77.849C188.068 78.1364 187.316 78.2801 186.493 78.2801ZM205.33 78.2997C204.298 78.2997 203.345 78.1299 202.469 77.7902C201.594 77.4375 200.836 76.9475 200.196 76.3204C199.556 75.6933 199.053 74.9552 198.687 74.106C198.334 73.2568 198.158 72.3292 198.158 71.3233C198.158 70.3173 198.334 69.3897 198.687 68.5406C199.053 67.6914 199.556 66.9532 200.196 66.3261C200.849 65.699 201.614 65.2156 202.489 64.876C203.364 64.5232 204.318 64.3469 205.35 64.3469C206.343 64.3469 207.277 64.5167 208.152 64.8564C209.028 65.183 209.766 65.6794 210.367 66.3457L209.446 67.2668C208.884 66.6919 208.263 66.2804 207.584 66.0322C206.905 65.7709 206.173 65.6402 205.389 65.6402C204.566 65.6402 203.802 65.784 203.096 66.0714C202.391 66.3457 201.777 66.7442 201.254 67.2668C200.732 67.7763 200.32 68.3772 200.02 69.0697C199.732 69.749 199.589 70.5002 199.589 71.3233C199.589 72.1463 199.732 72.9041 200.02 73.5965C200.32 74.2759 200.732 74.8768 201.254 75.3994C201.777 75.9089 202.391 76.3074 203.096 76.5948C203.802 76.8692 204.566 77.0063 205.389 77.0063C206.173 77.0063 206.905 76.8757 207.584 76.6144C208.263 76.3531 208.884 75.935 209.446 75.3602L210.367 76.2812C209.766 76.9475 209.028 77.4505 208.152 77.7902C207.277 78.1299 206.336 78.2997 205.33 78.2997ZM213.164 78.1821V63.6414H214.555V78.1821H213.164ZM222.679 78.2801C221.804 78.2801 221.04 78.1168 220.387 77.7902C219.733 77.4636 219.224 76.9737 218.858 76.3204C218.505 75.6672 218.329 74.8507 218.329 73.8709V67.8939H219.72V73.7141C219.72 74.8115 219.988 75.6411 220.524 76.2029C221.072 76.7516 221.837 77.0259 222.817 77.0259C223.535 77.0259 224.156 76.8822 224.678 76.5948C225.214 76.2943 225.619 75.8632 225.893 75.3014C226.181 74.7396 226.324 74.0668 226.324 73.283V67.8939H227.716V78.1821H226.383V75.3602L226.599 75.8697C226.272 76.6275 225.763 77.2219 225.07 77.653C224.391 78.0711 223.594 78.2801 222.679 78.2801ZM236.904 78.2801C236.003 78.2801 235.193 78.0776 234.474 77.6726C233.756 77.2546 233.187 76.6536 232.769 75.8697C232.351 75.0859 232.142 74.1387 232.142 73.0282C232.142 71.9047 232.351 70.9575 232.769 70.1867C233.2 69.4028 233.775 68.8084 234.494 68.4034C235.212 67.9984 236.016 67.7959 236.904 67.7959C237.884 67.7959 238.759 68.018 239.53 68.4622C240.314 68.8933 240.928 69.5008 241.372 70.2847C241.816 71.0685 242.038 71.983 242.038 73.0282C242.038 74.0603 241.816 74.9748 241.372 75.7717C240.928 76.5556 240.314 77.1696 239.53 77.6138C238.759 78.058 237.884 78.2801 236.904 78.2801ZM231.593 78.1821V63.6414H232.985V70.9314L232.789 73.0086L232.926 75.0859V78.1821H231.593ZM236.806 77.0455C237.538 77.0455 238.191 76.8822 238.766 76.5556C239.341 76.2159 239.798 75.7456 240.138 75.1446C240.477 74.5306 240.647 73.8251 240.647 73.0282C240.647 72.2182 240.477 71.5127 240.138 70.9118C239.798 70.3108 239.341 69.847 238.766 69.5204C238.191 69.1807 237.538 69.0109 236.806 69.0109C236.075 69.0109 235.415 69.1807 234.827 69.5204C234.252 69.847 233.795 70.3108 233.455 70.9118C233.129 71.5127 232.965 72.2182 232.965 73.0282C232.965 73.8251 233.129 74.5306 233.455 75.1446C233.795 75.7456 234.252 76.2159 234.827 76.5556C235.415 76.8822 236.075 77.0455 236.806 77.0455ZM254.197 78.2801C253.204 78.2801 252.31 78.058 251.513 77.6138C250.729 77.1566 250.108 76.536 249.651 75.7521C249.194 74.9552 248.965 74.0472 248.965 73.0282C248.965 71.9961 249.194 71.0881 249.651 70.3043C250.108 69.5204 250.729 68.9064 251.513 68.4622C252.296 68.018 253.191 67.7959 254.197 67.7959C255.216 67.7959 256.118 68.018 256.902 68.4622C257.699 68.9064 258.319 69.5204 258.763 70.3043C259.221 71.0881 259.449 71.9961 259.449 73.0282C259.449 74.0472 259.221 74.9552 258.763 75.7521C258.319 76.536 257.699 77.1566 256.902 77.6138C256.105 78.058 255.203 78.2801 254.197 78.2801ZM254.197 77.0455C254.942 77.0455 255.602 76.8822 256.177 76.5556C256.751 76.2159 257.202 75.7456 257.529 75.1446C257.868 74.5306 258.038 73.8251 258.038 73.0282C258.038 72.2182 257.868 71.5127 257.529 70.9118C257.202 70.3108 256.751 69.847 256.177 69.5204C255.602 69.1807 254.949 69.0109 254.217 69.0109C253.485 69.0109 252.832 69.1807 252.257 69.5204C251.682 69.847 251.225 70.3108 250.885 70.9118C250.546 71.5127 250.376 72.2182 250.376 73.0282C250.376 73.8251 250.546 74.5306 250.885 75.1446C251.225 75.7456 251.682 76.2159 252.257 76.5556C252.832 76.8822 253.479 77.0455 254.197 77.0455ZM262.525 78.1821V66.6005C262.525 65.686 262.793 64.9478 263.328 64.3861C263.864 63.8243 264.635 63.5434 265.641 63.5434C266.033 63.5434 266.412 63.5957 266.777 63.7002C267.143 63.8047 267.45 63.968 267.699 64.1901L267.228 65.2287C267.032 65.0589 266.804 64.9348 266.542 64.8564C266.281 64.7649 266 64.7192 265.7 64.7192C265.112 64.7192 264.661 64.8825 264.347 65.2091C264.034 65.5357 263.877 66.0191 263.877 66.6593V68.227L263.916 68.8737V78.1821H262.525ZM260.683 69.0501V67.8939H267.052V69.0501H260.683ZM274.353 78.1821V64.4644H275.803V78.1821H274.353ZM280.267 78.1821V64.4644H281.717V78.1821H280.267ZM288.845 78.1821V65.7186H284.025V64.4644H295.116V65.7186H290.295V78.1821H288.845ZM307.466 64.4644H308.897V78.1821H307.466V64.4644ZM298.883 78.1821H297.433V64.4644H298.883V78.1821ZM307.604 71.8524H298.726V70.5786H307.604V71.8524Z" fill="white"/>
<path d="M0 80.1877C1.48501 76.2276 2.96012 72.2658 4.45833 68.3107C9.65752 54.5783 14.865 40.8493 20.0674 27.1186C20.0872 27.067 20.0872 27.0104 20.0971 26.9555C20.5228 26.3116 20.5624 25.6743 20.2374 24.9422C19.5856 23.4796 19.0197 21.9787 18.4026 20.5012C17.1585 17.5194 15.9672 14.5127 14.634 11.5709C13.5829 9.24974 11.758 8.01012 9.12951 8.16653C8.34906 8.21312 7.56365 8.17319 6.66935 8.17319V1.3145C6.69905 1.10152 6.72875 0.888534 6.76505 0.628963C7.86725 0.415981 8.94801 0.20799 10.0271 0C11.2927 0 12.5566 0 13.8221 0C14.2627 0.101499 14.6983 0.231285 15.1422 0.302834C19.5477 1.00002 22.5771 3.5142 24.2024 7.62076C26.976 14.6342 29.6177 21.7025 32.3089 28.7492C37.2589 41.7079 42.2007 54.6698 47.1573 67.6268C47.423 68.3223 47.7662 68.9879 48.0945 69.6568C49.0631 71.6302 50.5712 72.7101 52.8301 72.5537C53.3168 72.5204 53.8085 72.5487 54.3596 72.5487C54.3794 72.73 54.4075 72.9697 54.4355 73.2093C54.5147 75.612 54.5939 78.013 54.6748 80.4689C54.4223 80.5571 54.1732 80.6636 53.9141 80.7302C52.2823 81.1478 50.6356 81.1728 48.9525 81.0962C44.9364 80.9149 41.8492 79.2559 40.0656 75.5637C38.8545 73.0562 37.7704 70.4788 36.7573 67.8814C33.9671 60.7215 31.2463 53.5334 28.4957 46.3569C27.5997 44.0191 26.6955 41.6862 25.7946 39.3501C25.7286 39.3484 25.661 39.3468 25.595 39.3451C20.6383 52.9643 15.6834 66.5852 10.7333 80.1877H0Z" fill="#9B59B6"/>
<path d="M67.4165 48.6978V18.5205H74.4004V43.0072H89.5322V48.6978H67.4165ZM107.355 48.6978V44.1712L106.924 43.1796V35.0749C106.924 33.6379 106.478 32.517 105.587 31.7123C104.725 30.9075 103.389 30.5052 101.578 30.5052C100.342 30.5052 99.1208 30.7064 97.9138 31.1087C96.7354 31.4823 95.7295 31.9997 94.896 32.6607L92.4819 27.9617C93.7464 27.0707 95.2697 26.381 97.0515 25.8924C98.8334 25.4038 100.644 25.1595 102.483 25.1595C106.019 25.1595 108.763 25.993 110.718 27.6599C112.672 29.3268 113.649 31.9278 113.649 35.4629V48.6978H107.355ZM100.285 49.0426C98.4742 49.0426 96.9222 48.7409 95.6289 48.1373C94.3356 47.505 93.3441 46.6572 92.6543 45.5938C91.9645 44.5304 91.6196 43.3377 91.6196 42.0156C91.6196 40.6361 91.9502 39.429 92.6112 38.3944C93.3009 37.3597 94.3787 36.555 95.8445 35.9802C97.3102 35.3766 99.2214 35.0749 101.578 35.0749H107.743V38.9979H102.311C100.73 38.9979 99.6382 39.2566 99.0346 39.7739C98.4598 40.2912 98.1724 40.9379 98.1724 41.7139C98.1724 42.5761 98.5029 43.2658 99.164 43.7832C99.8537 44.2718 100.788 44.516 101.966 44.516C103.087 44.516 104.093 44.2574 104.984 43.7401C105.875 43.194 106.521 42.4036 106.924 41.369L107.958 44.4729C107.47 45.9674 106.579 47.1027 105.286 47.8787C103.992 48.6546 102.325 49.0426 100.285 49.0426ZM149.439 25.1595C151.278 25.1595 152.902 25.5331 154.31 26.2804C155.747 26.9989 156.868 28.1197 157.673 29.643C158.506 31.1375 158.923 33.0631 158.923 35.4198V48.6978H152.198V36.4544C152.198 34.5863 151.81 33.2068 151.034 32.3158C150.258 31.4249 149.166 30.9794 147.757 30.9794C146.78 30.9794 145.904 31.2093 145.128 31.6692C144.352 32.1003 143.748 32.7613 143.317 33.6522C142.886 34.5432 142.67 35.6784 142.67 37.058V48.6978H135.945V36.4544C135.945 34.5863 135.557 33.2068 134.781 32.3158C134.034 31.4249 132.956 30.9794 131.548 30.9794C130.571 30.9794 129.694 31.2093 128.918 31.6692C128.142 32.1003 127.539 32.7613 127.108 33.6522C126.676 34.5432 126.461 35.6784 126.461 37.058V48.6978H119.736V25.5044H126.159V31.8416L124.952 29.9879C125.757 28.4071 126.892 27.2144 128.358 26.4097C129.852 25.5762 131.548 25.1595 133.445 25.1595C135.572 25.1595 137.425 25.7056 139.006 26.7977C140.615 27.8611 141.679 29.4993 142.196 31.7123L139.825 31.0656C140.601 29.255 141.837 27.818 143.533 26.7546C145.257 25.6912 147.226 25.1595 149.439 25.1595ZM178.66 49.0426C176.62 49.0426 174.866 48.6115 173.401 47.7493C171.935 46.8871 170.814 45.5794 170.038 43.8263C169.262 42.0444 168.874 39.8026 168.874 37.1011C168.874 34.3707 169.276 32.129 170.081 30.3758C170.915 28.6227 172.064 27.315 173.53 26.4528C174.996 25.5906 176.706 25.1595 178.66 25.1595C180.844 25.1595 182.799 25.6481 184.523 26.6252C186.276 27.6024 187.656 28.9819 188.662 30.7638C189.696 32.5457 190.214 34.6581 190.214 37.1011C190.214 39.5152 189.696 41.6133 188.662 43.3952C187.656 45.1771 186.276 46.571 184.523 47.5769C182.799 48.5541 180.844 49.0426 178.66 49.0426ZM164.951 48.6978V16.7099H171.676V30.2034L171.245 37.058L171.374 43.9556V48.6978H164.951ZM177.496 43.5245C178.617 43.5245 179.609 43.2658 180.471 42.7485C181.362 42.2312 182.066 41.4983 182.583 40.5499C183.129 39.5727 183.402 38.4231 183.402 37.1011C183.402 35.7503 183.129 34.6007 182.583 33.6522C182.066 32.7038 181.362 31.9709 180.471 31.4536C179.609 30.9363 178.617 30.6776 177.496 30.6776C176.375 30.6776 175.369 30.9363 174.478 31.4536C173.587 31.9709 172.883 32.7038 172.366 33.6522C171.849 34.6007 171.59 35.7503 171.59 37.1011C171.59 38.4231 171.849 39.5727 172.366 40.5499C172.883 41.4983 173.587 42.2312 174.478 42.7485C175.369 43.2658 176.375 43.5245 177.496 43.5245ZM204.674 49.0426C202.49 49.0426 200.521 48.5541 198.768 47.5769C197.015 46.571 195.621 45.1771 194.586 43.3952C193.58 41.6133 193.078 39.5152 193.078 37.1011C193.078 34.6581 193.58 32.5457 194.586 30.7638C195.621 28.9819 197.015 27.6024 198.768 26.6252C200.521 25.6481 202.49 25.1595 204.674 25.1595C206.629 25.1595 208.339 25.5906 209.804 26.4528C211.27 27.315 212.405 28.6227 213.21 30.3758C214.015 32.129 214.417 34.3707 214.417 37.1011C214.417 39.8026 214.029 42.0444 213.253 43.8263C212.477 45.5794 211.356 46.8871 209.891 47.7493C208.454 48.6115 206.715 49.0426 204.674 49.0426ZM205.838 43.5245C206.93 43.5245 207.922 43.2658 208.813 42.7485C209.704 42.2312 210.408 41.4983 210.925 40.5499C211.471 39.5727 211.744 38.4231 211.744 37.1011C211.744 35.7503 211.471 34.6007 210.925 33.6522C210.408 32.7038 209.704 31.9709 208.813 31.4536C207.922 30.9363 206.93 30.6776 205.838 30.6776C204.717 30.6776 203.711 30.9363 202.82 31.4536C201.93 31.9709 201.211 32.7038 200.665 33.6522C200.148 34.6007 199.889 35.7503 199.889 37.1011C199.889 38.4231 200.148 39.5727 200.665 40.5499C201.211 41.4983 201.93 42.2312 202.82 42.7485C203.711 43.2658 204.717 43.5245 205.838 43.5245ZM211.917 48.6978V43.9556L212.046 37.058L211.615 30.2034V16.7099H218.34V48.6978H211.917ZM238.791 48.6978V44.1712L238.36 43.1796V35.0749C238.36 33.6379 237.914 32.517 237.024 31.7123C236.161 30.9075 234.825 30.5052 233.014 30.5052C231.778 30.5052 230.557 30.7064 229.35 31.1087C228.172 31.4823 227.166 31.9997 226.332 32.6607L223.918 27.9617C225.183 27.0707 226.706 26.381 228.488 25.8924C230.27 25.4038 232.08 25.1595 233.92 25.1595C237.455 25.1595 240.199 25.993 242.154 27.6599C244.108 29.3268 245.085 31.9278 245.085 35.4629V48.6978H238.791ZM231.721 49.0426C229.91 49.0426 228.358 48.7409 227.065 48.1373C225.772 47.505 224.78 46.6572 224.09 45.5938C223.401 44.5304 223.056 43.3377 223.056 42.0156C223.056 40.6361 223.386 39.429 224.047 38.3944C224.737 37.3597 225.815 36.555 227.281 35.9802C228.746 35.3766 230.658 35.0749 233.014 35.0749H239.179V38.9979H233.747C232.166 38.9979 231.074 39.2566 230.471 39.7739C229.896 40.2912 229.609 40.9379 229.609 41.7139C229.609 42.5761 229.939 43.2658 230.6 43.7832C231.29 44.2718 232.224 44.516 233.402 44.516C234.523 44.516 235.529 44.2574 236.42 43.7401C237.311 43.194 237.958 42.4036 238.36 41.369L239.395 44.4729C238.906 45.9674 238.015 47.1027 236.722 47.8787C235.428 48.6546 233.761 49.0426 231.721 49.0426Z" fill="white"/>
</svg>
