<svg width="1318" height="338" viewBox="0 0 1318 338" fill="none" xmlns="http://www.w3.org/2000/svg">
<path d="M45 1.5H1273C1297.02 1.5 1316.5 20.9756 1316.5 45V293C1316.5 317.024 1297.02 336.5 1273 336.5H45C20.9756 336.5 1.5 317.024 1.5 293V45C1.5 20.9756 20.9756 1.5 45 1.5Z" fill="#28013C"/>
<path d="M45 1.5H1273C1297.02 1.5 1316.5 20.9756 1316.5 45V293C1316.5 317.024 1297.02 336.5 1273 336.5H45C20.9756 336.5 1.5 317.024 1.5 293V45C1.5 20.9756 20.9756 1.5 45 1.5Z" stroke="#6226A2" stroke-width="3"/>
<rect x="68" y="247" width="74" height="38" rx="15" fill="#652F7C"/>
<path d="M82.975 275L90.9 257.5H93.375L101.325 275H98.7L91.625 258.9H92.625L85.55 275H82.975ZM86.35 270.625L87.025 268.625H96.875L97.6 270.625H86.35ZM103.936 275V257.5H110.761C112.294 257.5 113.602 257.742 114.686 258.225C115.769 258.708 116.602 259.408 117.186 260.325C117.769 261.242 118.061 262.333 118.061 263.6C118.061 264.867 117.769 265.958 117.186 266.875C116.602 267.775 115.769 268.475 114.686 268.975C113.602 269.458 112.294 269.7 110.761 269.7H105.311L106.436 268.525V275H103.936ZM106.436 268.775L105.311 267.525H110.686C112.286 267.525 113.494 267.183 114.311 266.5C115.144 265.817 115.561 264.85 115.561 263.6C115.561 262.35 115.144 261.383 114.311 260.7C113.494 260.017 112.286 259.675 110.686 259.675H105.311L106.436 258.425V268.775ZM121.733 275V257.5H124.233V275H121.733Z" fill="#D39FE8"/>
<path d="M161 262C161 253.716 167.716 247 176 247H287C295.284 247 302 253.716 302 262V270C302 278.284 295.284 285 287 285H176C167.716 285 161 278.284 161 270V262Z" fill="#652F7C"/>
<path d="M178.625 275V257.5H186C187.867 257.5 189.508 257.867 190.925 258.6C192.358 259.333 193.467 260.358 194.25 261.675C195.05 262.992 195.45 264.517 195.45 266.25C195.45 267.983 195.05 269.508 194.25 270.825C193.467 272.142 192.358 273.167 190.925 273.9C189.508 274.633 187.867 275 186 275H178.625ZM181.125 272.825H185.85C187.3 272.825 188.55 272.55 189.6 272C190.667 271.45 191.492 270.683 192.075 269.7C192.658 268.7 192.95 267.55 192.95 266.25C192.95 264.933 192.658 263.783 192.075 262.8C191.492 261.817 190.667 261.05 189.6 260.5C188.55 259.95 187.3 259.675 185.85 259.675H181.125V272.825ZM204.829 275.15C203.413 275.15 202.163 274.858 201.079 274.275C200.013 273.692 199.179 272.892 198.579 271.875C197.996 270.858 197.704 269.692 197.704 268.375C197.704 267.058 197.988 265.892 198.554 264.875C199.138 263.858 199.929 263.067 200.929 262.5C201.946 261.917 203.088 261.625 204.354 261.625C205.638 261.625 206.771 261.908 207.754 262.475C208.738 263.042 209.504 263.842 210.054 264.875C210.621 265.892 210.904 267.083 210.904 268.45C210.904 268.55 210.896 268.667 210.879 268.8C210.879 268.933 210.871 269.058 210.854 269.175H199.579V267.45H209.604L208.629 268.05C208.646 267.2 208.471 266.442 208.104 265.775C207.738 265.108 207.229 264.592 206.579 264.225C205.946 263.842 205.204 263.65 204.354 263.65C203.521 263.65 202.779 263.842 202.129 264.225C201.479 264.592 200.971 265.117 200.604 265.8C200.238 266.467 200.054 267.233 200.054 268.1V268.5C200.054 269.383 200.254 270.175 200.654 270.875C201.071 271.558 201.646 272.092 202.379 272.475C203.113 272.858 203.954 273.05 204.904 273.05C205.688 273.05 206.396 272.917 207.029 272.65C207.679 272.383 208.246 271.983 208.729 271.45L210.054 273C209.454 273.7 208.704 274.233 207.804 274.6C206.921 274.967 205.929 275.15 204.829 275.15ZM217.468 275L211.668 261.75H214.168L219.318 273.75H218.118L223.368 261.75H225.718L219.918 275H217.468ZM232.874 275.15C231.54 275.15 230.507 274.792 229.774 274.075C229.04 273.358 228.674 272.333 228.674 271V258.85H231.074V270.9C231.074 271.617 231.249 272.167 231.599 272.55C231.965 272.933 232.482 273.125 233.149 273.125C233.899 273.125 234.524 272.917 235.024 272.5L235.774 274.225C235.407 274.542 234.965 274.775 234.449 274.925C233.949 275.075 233.424 275.15 232.874 275.15ZM226.424 263.725V261.75H234.874V263.725H226.424ZM243.911 275.15C242.578 275.15 241.394 274.858 240.361 274.275C239.328 273.692 238.511 272.892 237.911 271.875C237.311 270.842 237.011 269.675 237.011 268.375C237.011 267.058 237.311 265.892 237.911 264.875C238.511 263.858 239.328 263.067 240.361 262.5C241.394 261.917 242.578 261.625 243.911 261.625C245.228 261.625 246.403 261.917 247.436 262.5C248.486 263.067 249.303 263.858 249.886 264.875C250.486 265.875 250.786 267.042 250.786 268.375C250.786 269.692 250.486 270.858 249.886 271.875C249.303 272.892 248.486 273.692 247.436 274.275C246.403 274.858 245.228 275.15 243.911 275.15ZM243.911 273.05C244.761 273.05 245.519 272.858 246.186 272.475C246.869 272.092 247.403 271.55 247.786 270.85C248.169 270.133 248.361 269.308 248.361 268.375C248.361 267.425 248.169 266.608 247.786 265.925C247.403 265.225 246.869 264.683 246.186 264.3C245.519 263.917 244.761 263.725 243.911 263.725C243.061 263.725 242.303 263.917 241.636 264.3C240.969 264.683 240.436 265.225 240.036 265.925C239.636 266.608 239.436 267.425 239.436 268.375C239.436 269.308 239.636 270.133 240.036 270.85C240.436 271.55 240.969 272.092 241.636 272.475C242.303 272.858 243.061 273.05 243.911 273.05ZM259.78 275.15C258.447 275.15 257.263 274.858 256.23 274.275C255.197 273.692 254.38 272.892 253.78 271.875C253.18 270.842 252.88 269.675 252.88 268.375C252.88 267.058 253.18 265.892 253.78 264.875C254.38 263.858 255.197 263.067 256.23 262.5C257.263 261.917 258.447 261.625 259.78 261.625C261.097 261.625 262.272 261.917 263.305 262.5C264.355 263.067 265.172 263.858 265.755 264.875C266.355 265.875 266.655 267.042 266.655 268.375C266.655 269.692 266.355 270.858 265.755 271.875C265.172 272.892 264.355 273.692 263.305 274.275C262.272 274.858 261.097 275.15 259.78 275.15ZM259.78 273.05C260.63 273.05 261.388 272.858 262.055 272.475C262.738 272.092 263.272 271.55 263.655 270.85C264.038 270.133 264.23 269.308 264.23 268.375C264.23 267.425 264.038 266.608 263.655 265.925C263.272 265.225 262.738 264.683 262.055 264.3C261.388 263.917 260.63 263.725 259.78 263.725C258.93 263.725 258.172 263.917 257.505 264.3C256.838 264.683 256.305 265.225 255.905 265.925C255.505 266.608 255.305 267.425 255.305 268.375C255.305 269.308 255.505 270.133 255.905 270.85C256.305 271.55 256.838 272.092 257.505 272.475C258.172 272.858 258.93 273.05 259.78 273.05ZM269.974 275V256.45H272.374V275H269.974ZM280.757 275.15C279.657 275.15 278.607 275 277.607 274.7C276.623 274.4 275.848 274.033 275.282 273.6L276.282 271.7C276.848 272.083 277.548 272.408 278.382 272.675C279.215 272.942 280.065 273.075 280.932 273.075C282.048 273.075 282.848 272.917 283.332 272.6C283.832 272.283 284.082 271.842 284.082 271.275C284.082 270.858 283.932 270.533 283.632 270.3C283.332 270.067 282.932 269.892 282.432 269.775C281.948 269.658 281.407 269.558 280.807 269.475C280.207 269.375 279.607 269.258 279.007 269.125C278.407 268.975 277.857 268.775 277.357 268.525C276.857 268.258 276.457 267.9 276.157 267.45C275.857 266.983 275.707 266.367 275.707 265.6C275.707 264.8 275.932 264.1 276.382 263.5C276.832 262.9 277.465 262.442 278.282 262.125C279.115 261.792 280.098 261.625 281.232 261.625C282.098 261.625 282.973 261.733 283.857 261.95C284.757 262.15 285.49 262.442 286.057 262.825L285.032 264.725C284.432 264.325 283.807 264.05 283.157 263.9C282.507 263.75 281.857 263.675 281.207 263.675C280.157 263.675 279.373 263.85 278.857 264.2C278.34 264.533 278.082 264.967 278.082 265.5C278.082 265.95 278.232 266.3 278.532 266.55C278.848 266.783 279.248 266.967 279.732 267.1C280.232 267.233 280.782 267.35 281.382 267.45C281.982 267.533 282.582 267.65 283.182 267.8C283.782 267.933 284.323 268.125 284.807 268.375C285.307 268.625 285.707 268.975 286.007 269.425C286.323 269.875 286.482 270.475 286.482 271.225C286.482 272.025 286.248 272.717 285.782 273.3C285.315 273.883 284.657 274.342 283.807 274.675C282.957 274.992 281.94 275.15 280.757 275.15Z" fill="#D39FE8"/>
<path d="M68.82 146V125H78C80.28 125 82.28 125.44 84 126.32C85.72 127.2 87.06 128.42 88.02 129.98C88.98 131.54 89.46 133.38 89.46 135.5C89.46 137.6 88.98 139.44 88.02 141.02C87.06 142.58 85.72 143.8 84 144.68C82.28 145.56 80.28 146 78 146H68.82ZM72.72 142.7H77.82C79.4 142.7 80.76 142.4 81.9 141.8C83.06 141.2 83.95 140.36 84.57 139.28C85.21 138.2 85.53 136.94 85.53 135.5C85.53 134.04 85.21 132.78 84.57 131.72C83.95 130.64 83.06 129.8 81.9 129.2C80.76 128.6 79.4 128.3 77.82 128.3H72.72V142.7ZM100.025 146.21C98.6652 146.21 97.4652 145.96 96.4252 145.46C95.3852 144.94 94.5752 144.16 93.9952 143.12C93.4152 142.06 93.1252 140.73 93.1252 139.13V129.98H96.8752V138.62C96.8752 140.06 97.1952 141.14 97.8352 141.86C98.4952 142.56 99.4252 142.91 100.625 142.91C101.505 142.91 102.265 142.73 102.905 142.37C103.565 142.01 104.075 141.47 104.435 140.75C104.815 140.03 105.005 139.14 105.005 138.08V129.98H108.755V146H105.185V141.68L105.815 143C105.275 144.04 104.485 144.84 103.445 145.4C102.405 145.94 101.265 146.21 100.025 146.21ZM121.015 146.21C119.335 146.21 117.835 145.86 116.515 145.16C115.215 144.44 114.195 143.46 113.455 142.22C112.715 140.98 112.345 139.57 112.345 137.99C112.345 136.39 112.715 134.98 113.455 133.76C114.195 132.52 115.215 131.55 116.515 130.85C117.835 130.15 119.335 129.8 121.015 129.8C122.575 129.8 123.945 130.12 125.125 130.76C126.325 131.38 127.235 132.3 127.855 133.52L124.975 135.2C124.495 134.44 123.905 133.88 123.205 133.52C122.525 133.16 121.785 132.98 120.985 132.98C120.065 132.98 119.235 133.18 118.495 133.58C117.755 133.98 117.175 134.56 116.755 135.32C116.335 136.06 116.125 136.95 116.125 137.99C116.125 139.03 116.335 139.93 116.755 140.69C117.175 141.43 117.755 142 118.495 142.4C119.235 142.8 120.065 143 120.985 143C121.785 143 122.525 142.82 123.205 142.46C123.905 142.1 124.495 141.54 124.975 140.78L127.855 142.46C127.235 143.66 126.325 144.59 125.125 145.25C123.945 145.89 122.575 146.21 121.015 146.21ZM134.01 142.43L134.1 137.72L142.47 129.98H146.97L139.86 137.12L137.88 138.77L134.01 142.43ZM130.95 146V123.74H134.7V146H130.95ZM143.04 146L137.19 138.77L139.56 135.77L147.6 146H143.04ZM150.383 146V125H159.563C161.843 125 163.843 125.44 165.563 126.32C167.283 127.2 168.623 128.42 169.583 129.98C170.543 131.54 171.023 133.38 171.023 135.5C171.023 137.6 170.543 139.44 169.583 141.02C168.623 142.58 167.283 143.8 165.563 144.68C163.843 145.56 161.843 146 159.563 146H150.383ZM154.283 142.7H159.383C160.963 142.7 162.323 142.4 163.463 141.8C164.623 141.2 165.513 140.36 166.133 139.28C166.773 138.2 167.093 136.94 167.093 135.5C167.093 134.04 166.773 132.78 166.133 131.72C165.513 130.64 164.623 129.8 163.463 129.2C162.323 128.6 160.963 128.3 159.383 128.3H154.283V142.7ZM175.168 146V125H185.008C187.528 125 189.448 125.5 190.768 126.5C192.088 127.48 192.748 128.8 192.748 130.46C192.748 131.58 192.488 132.54 191.968 133.34C191.448 134.12 190.748 134.73 189.868 135.17C189.008 135.59 188.068 135.8 187.048 135.8L187.588 134.72C188.768 134.72 189.828 134.94 190.768 135.38C191.708 135.8 192.448 136.42 192.988 137.24C193.548 138.06 193.828 139.08 193.828 140.3C193.828 142.1 193.138 143.5 191.758 144.5C190.378 145.5 188.328 146 185.608 146H175.168ZM179.068 142.94H185.368C186.828 142.94 187.948 142.7 188.728 142.22C189.508 141.74 189.898 140.97 189.898 139.91C189.898 138.87 189.508 138.11 188.728 137.63C187.948 137.13 186.828 136.88 185.368 136.88H178.768V133.85H184.588C185.948 133.85 186.988 133.61 187.708 133.13C188.448 132.65 188.818 131.93 188.818 130.97C188.818 129.99 188.448 129.26 187.708 128.78C186.988 128.3 185.948 128.06 184.588 128.06H179.068V142.94ZM198.83 134.78C198.15 134.78 197.57 134.55 197.09 134.09C196.61 133.61 196.37 133.01 196.37 132.29C196.37 131.53 196.61 130.93 197.09 130.49C197.57 130.03 198.15 129.8 198.83 129.8C199.51 129.8 200.09 130.03 200.57 130.49C201.05 130.93 201.29 131.53 201.29 132.29C201.29 133.01 201.05 133.61 200.57 134.09C200.09 134.55 199.51 134.78 198.83 134.78ZM198.83 146.21C198.15 146.21 197.57 145.98 197.09 145.52C196.61 145.04 196.37 144.44 196.37 143.72C196.37 142.96 196.61 142.36 197.09 141.92C197.57 141.46 198.15 141.23 198.83 141.23C199.51 141.23 200.09 141.46 200.57 141.92C201.05 142.36 201.29 142.96 201.29 143.72C201.29 144.44 201.05 145.04 200.57 145.52C200.09 145.98 199.51 146.21 198.83 146.21ZM217.865 146V128.3H210.905V125H228.725V128.3H221.765V146H217.865ZM240.382 129.8C241.662 129.8 242.802 130.05 243.802 130.55C244.822 131.05 245.622 131.82 246.202 132.86C246.782 133.88 247.072 135.2 247.072 136.82V146H243.322V137.3C243.322 135.88 242.982 134.82 242.302 134.12C241.642 133.42 240.712 133.07 239.512 133.07C238.632 133.07 237.852 133.25 237.172 133.61C236.492 133.97 235.962 134.51 235.582 135.23C235.222 135.93 235.042 136.82 235.042 137.9V146H231.292V123.74H235.042V134.3L234.232 132.98C234.792 131.96 235.602 131.18 236.662 130.64C237.742 130.08 238.982 129.8 240.382 129.8ZM259.388 146.21C257.608 146.21 256.048 145.86 254.708 145.16C253.388 144.44 252.358 143.46 251.618 142.22C250.898 140.98 250.538 139.57 250.538 137.99C250.538 136.39 250.888 134.98 251.588 133.76C252.308 132.52 253.288 131.55 254.528 130.85C255.788 130.15 257.218 129.8 258.818 129.8C260.378 129.8 261.768 130.14 262.988 130.82C264.208 131.5 265.168 132.46 265.868 133.7C266.568 134.94 266.918 136.4 266.918 138.08C266.918 138.24 266.908 138.42 266.888 138.62C266.888 138.82 266.878 139.01 266.858 139.19H253.508V136.7H264.878L263.408 137.48C263.428 136.56 263.238 135.75 262.838 135.05C262.438 134.35 261.888 133.8 261.188 133.4C260.508 133 259.718 132.8 258.818 132.8C257.898 132.8 257.088 133 256.388 133.4C255.708 133.8 255.168 134.36 254.768 135.08C254.388 135.78 254.198 136.61 254.198 137.57V138.17C254.198 139.13 254.418 139.98 254.858 140.72C255.298 141.46 255.918 142.03 256.718 142.43C257.518 142.83 258.438 143.03 259.478 143.03C260.378 143.03 261.188 142.89 261.908 142.61C262.628 142.33 263.268 141.89 263.828 141.29L265.838 143.6C265.118 144.44 264.208 145.09 263.108 145.55C262.028 145.99 260.788 146.21 259.388 146.21ZM293.932 125H297.832V146H293.932V125ZM283.072 146H279.172V125H283.072V146ZM294.232 137H282.742V133.67H294.232V137ZM303.099 146V129.98H306.849V146H303.099ZM304.989 127.34C304.289 127.34 303.709 127.12 303.249 126.68C302.809 126.24 302.589 125.71 302.589 125.09C302.589 124.45 302.809 123.92 303.249 123.5C303.709 123.06 304.289 122.84 304.989 122.84C305.689 122.84 306.259 123.05 306.699 123.47C307.159 123.87 307.389 124.38 307.389 125C307.389 125.66 307.169 126.22 306.729 126.68C306.289 127.12 305.709 127.34 304.989 127.34ZM318.551 146.21C317.011 146.21 315.621 145.87 314.381 145.19C313.161 144.49 312.201 143.53 311.501 142.31C310.801 141.09 310.451 139.65 310.451 137.99C310.451 136.33 310.801 134.89 311.501 133.67C312.201 132.45 313.161 131.5 314.381 130.82C315.621 130.14 317.011 129.8 318.551 129.8C319.891 129.8 321.091 130.1 322.151 130.7C323.211 131.28 324.051 132.17 324.671 133.37C325.291 134.57 325.601 136.11 325.601 137.99C325.601 139.85 325.301 141.39 324.701 142.61C324.101 143.81 323.271 144.71 322.211 145.31C321.151 145.91 319.931 146.21 318.551 146.21ZM319.001 143C319.901 143 320.701 142.8 321.401 142.4C322.121 142 322.691 141.42 323.111 140.66C323.551 139.9 323.771 139.01 323.771 137.99C323.771 136.95 323.551 136.06 323.111 135.32C322.691 134.56 322.121 133.98 321.401 133.58C320.701 133.18 319.901 132.98 319.001 132.98C318.101 132.98 317.291 133.18 316.571 133.58C315.871 133.98 315.301 134.56 314.861 135.32C314.441 136.06 314.231 136.95 314.231 137.99C314.231 139.01 314.441 139.9 314.861 140.66C315.301 141.42 315.871 142 316.571 142.4C317.291 142.8 318.101 143 319.001 143ZM323.861 146V142.22L324.011 137.96L323.711 133.7V123.74H327.431V146H323.861ZM339.146 146.21C337.606 146.21 336.216 145.87 334.976 145.19C333.756 144.49 332.796 143.53 332.096 142.31C331.396 141.09 331.046 139.65 331.046 137.99C331.046 136.33 331.396 134.89 332.096 133.67C332.796 132.45 333.756 131.5 334.976 130.82C336.216 130.14 337.606 129.8 339.146 129.8C340.486 129.8 341.686 130.1 342.746 130.7C343.806 131.28 344.646 132.17 345.266 133.37C345.886 134.57 346.196 136.11 346.196 137.99C346.196 139.85 345.896 141.39 345.296 142.61C344.696 143.81 343.866 144.71 342.806 145.31C341.746 145.91 340.526 146.21 339.146 146.21ZM339.596 143C340.496 143 341.296 142.8 341.996 142.4C342.716 142 343.286 141.42 343.706 140.66C344.146 139.9 344.366 139.01 344.366 137.99C344.366 136.95 344.146 136.06 343.706 135.32C343.286 134.56 342.716 133.98 341.996 133.58C341.296 133.18 340.496 132.98 339.596 132.98C338.696 132.98 337.886 133.18 337.166 133.58C336.466 133.98 335.896 134.56 335.456 135.32C335.036 136.06 334.826 136.95 334.826 137.99C334.826 139.01 335.036 139.9 335.456 140.66C335.896 141.42 336.466 142 337.166 142.4C337.886 142.8 338.696 143 339.596 143ZM344.456 146V142.22L344.606 137.96L344.306 133.7V123.74H348.026V146H344.456ZM360.492 146.21C358.712 146.21 357.152 145.86 355.812 145.16C354.492 144.44 353.462 143.46 352.722 142.22C352.002 140.98 351.642 139.57 351.642 137.99C351.642 136.39 351.992 134.98 352.692 133.76C353.412 132.52 354.392 131.55 355.632 130.85C356.892 130.15 358.322 129.8 359.922 129.8C361.482 129.8 362.872 130.14 364.092 130.82C365.312 131.5 366.272 132.46 366.972 133.7C367.672 134.94 368.022 136.4 368.022 138.08C368.022 138.24 368.012 138.42 367.992 138.62C367.992 138.82 367.982 139.01 367.962 139.19H354.612V136.7H365.982L364.512 137.48C364.532 136.56 364.342 135.75 363.942 135.05C363.542 134.35 362.992 133.8 362.292 133.4C361.612 133 360.822 132.8 359.922 132.8C359.002 132.8 358.192 133 357.492 133.4C356.812 133.8 356.272 134.36 355.872 135.08C355.492 135.78 355.302 136.61 355.302 137.57V138.17C355.302 139.13 355.522 139.98 355.962 140.72C356.402 141.46 357.022 142.03 357.822 142.43C358.622 142.83 359.542 143.03 360.582 143.03C361.482 143.03 362.292 142.89 363.012 142.61C363.732 142.33 364.372 141.89 364.932 141.29L366.942 143.6C366.222 144.44 365.312 145.09 364.212 145.55C363.132 145.99 361.892 146.21 360.492 146.21ZM380.714 129.8C381.994 129.8 383.134 130.05 384.134 130.55C385.154 131.05 385.954 131.82 386.534 132.86C387.114 133.88 387.404 135.2 387.404 136.82V146H383.654V137.3C383.654 135.88 383.314 134.82 382.634 134.12C381.974 133.42 381.044 133.07 379.844 133.07C378.964 133.07 378.184 133.25 377.504 133.61C376.824 133.97 376.294 134.51 375.914 135.23C375.554 135.93 375.374 136.82 375.374 137.9V146H371.624V129.98H375.194V134.3L374.564 132.98C375.124 131.96 375.934 131.18 376.994 130.64C378.074 130.08 379.314 129.8 380.714 129.8ZM410.622 146.3C408.982 146.3 407.472 146.04 406.092 145.52C404.732 144.98 403.542 144.23 402.522 143.27C401.502 142.29 400.712 141.14 400.152 139.82C399.592 138.5 399.312 137.06 399.312 135.5C399.312 133.94 399.592 132.5 400.152 131.18C400.712 129.86 401.502 128.72 402.522 127.76C403.562 126.78 404.772 126.03 406.152 125.51C407.532 124.97 409.042 124.7 410.682 124.7C412.462 124.7 414.062 124.99 415.482 125.57C416.922 126.15 418.132 127 419.112 128.12L416.652 130.52C415.832 129.7 414.942 129.1 413.982 128.72C413.042 128.32 412.002 128.12 410.862 128.12C409.762 128.12 408.742 128.3 407.802 128.66C406.862 129.02 406.052 129.53 405.372 130.19C404.692 130.85 404.162 131.63 403.782 132.53C403.422 133.43 403.242 134.42 403.242 135.5C403.242 136.56 403.422 137.54 403.782 138.44C404.162 139.34 404.692 140.13 405.372 140.81C406.052 141.47 406.852 141.98 407.772 142.34C408.692 142.7 409.712 142.88 410.832 142.88C411.872 142.88 412.872 142.72 413.832 142.4C414.812 142.06 415.742 141.5 416.622 140.72L418.842 143.63C417.742 144.51 416.462 145.18 415.002 145.64C413.562 146.08 412.102 146.3 410.622 146.3ZM415.152 143.12V135.26H418.842V143.63L415.152 143.12ZM431.156 146.21C429.376 146.21 427.816 145.86 426.476 145.16C425.156 144.44 424.126 143.46 423.386 142.22C422.666 140.98 422.306 139.57 422.306 137.99C422.306 136.39 422.656 134.98 423.356 133.76C424.076 132.52 425.056 131.55 426.296 130.85C427.556 130.15 428.986 129.8 430.586 129.8C432.146 129.8 433.536 130.14 434.756 130.82C435.976 131.5 436.936 132.46 437.636 133.7C438.336 134.94 438.686 136.4 438.686 138.08C438.686 138.24 438.676 138.42 438.656 138.62C438.656 138.82 438.646 139.01 438.626 139.19H425.276V136.7H436.646L435.176 137.48C435.196 136.56 435.006 135.75 434.606 135.05C434.206 134.35 433.656 133.8 432.956 133.4C432.276 133 431.486 132.8 430.586 132.8C429.666 132.8 428.856 133 428.156 133.4C427.476 133.8 426.936 134.36 426.536 135.08C426.156 135.78 425.966 136.61 425.966 137.57V138.17C425.966 139.13 426.186 139.98 426.626 140.72C427.066 141.46 427.686 142.03 428.486 142.43C429.286 142.83 430.206 143.03 431.246 143.03C432.146 143.03 432.956 142.89 433.676 142.61C434.396 142.33 435.036 141.89 435.596 141.29L437.606 143.6C436.886 144.44 435.976 145.09 434.876 145.55C433.796 145.99 432.556 146.21 431.156 146.21ZM462.508 129.8C463.788 129.8 464.918 130.05 465.898 130.55C466.898 131.05 467.678 131.82 468.238 132.86C468.798 133.88 469.078 135.2 469.078 136.82V146H465.328V137.3C465.328 135.88 465.018 134.82 464.398 134.12C463.778 133.42 462.888 133.07 461.728 133.07C460.908 133.07 460.178 133.25 459.538 133.61C458.918 133.97 458.428 134.5 458.068 135.2C457.728 135.9 457.558 136.79 457.558 137.87V146H453.808V137.3C453.808 135.88 453.498 134.82 452.878 134.12C452.258 133.42 451.368 133.07 450.208 133.07C449.388 133.07 448.658 133.25 448.018 133.61C447.398 133.97 446.908 134.5 446.548 135.2C446.208 135.9 446.038 136.79 446.038 137.87V146H442.288V129.98H445.858V134.24L445.228 132.98C445.768 131.94 446.548 131.15 447.568 130.61C448.608 130.07 449.788 129.8 451.108 129.8C452.608 129.8 453.908 130.17 455.008 130.91C456.128 131.65 456.868 132.77 457.228 134.27L455.758 133.76C456.278 132.56 457.138 131.6 458.338 130.88C459.538 130.16 460.928 129.8 462.508 129.8ZM482.521 146V125H491.161C493.021 125 494.611 125.3 495.931 125.9C497.271 126.5 498.301 127.36 499.021 128.48C499.741 129.6 500.101 130.93 500.101 132.47C500.101 134.01 499.741 135.34 499.021 136.46C498.301 137.58 497.271 138.44 495.931 139.04C494.611 139.64 493.021 139.94 491.161 139.94H484.681L486.421 138.11V146H482.521ZM486.421 138.53L484.681 136.64H490.981C492.701 136.64 493.991 136.28 494.851 135.56C495.731 134.82 496.171 133.79 496.171 132.47C496.171 131.13 495.731 130.1 494.851 129.38C493.991 128.66 492.701 128.3 490.981 128.3H484.681L486.421 126.38V138.53ZM510.777 146.21C509.137 146.21 507.677 145.86 506.397 145.16C505.117 144.44 504.107 143.46 503.367 142.22C502.627 140.98 502.257 139.57 502.257 137.99C502.257 136.39 502.627 134.98 503.367 133.76C504.107 132.52 505.117 131.55 506.397 130.85C507.677 130.15 509.137 129.8 510.777 129.8C512.437 129.8 513.907 130.15 515.187 130.85C516.487 131.55 517.497 132.51 518.217 133.73C518.957 134.95 519.327 136.37 519.327 137.99C519.327 139.57 518.957 140.98 518.217 142.22C517.497 143.46 516.487 144.44 515.187 145.16C513.907 145.86 512.437 146.21 510.777 146.21ZM510.777 143C511.697 143 512.517 142.8 513.237 142.4C513.957 142 514.517 141.42 514.917 140.66C515.337 139.9 515.547 139.01 515.547 137.99C515.547 136.95 515.337 136.06 514.917 135.32C514.517 134.56 513.957 133.98 513.237 133.58C512.517 133.18 511.707 132.98 510.807 132.98C509.887 132.98 509.067 133.18 508.347 133.58C507.647 133.98 507.087 134.56 506.667 135.32C506.247 136.06 506.037 136.95 506.037 137.99C506.037 139.01 506.247 139.9 506.667 140.66C507.087 141.42 507.647 142 508.347 142.4C509.067 142.8 509.877 143 510.777 143ZM526.014 146L520.134 129.98H523.674L528.714 144.11H527.034L532.314 129.98H535.464L540.594 144.11H538.944L544.134 129.98H547.464L541.554 146H537.954L533.274 133.49H534.384L529.614 146H526.014ZM557.133 146.21C555.353 146.21 553.793 145.86 552.453 145.16C551.133 144.44 550.103 143.46 549.363 142.22C548.643 140.98 548.283 139.57 548.283 137.99C548.283 136.39 548.633 134.98 549.333 133.76C550.053 132.52 551.033 131.55 552.273 130.85C553.533 130.15 554.963 129.8 556.563 129.8C558.123 129.8 559.513 130.14 560.733 130.82C561.953 131.5 562.913 132.46 563.613 133.7C564.313 134.94 564.663 136.4 564.663 138.08C564.663 138.24 564.653 138.42 564.633 138.62C564.633 138.82 564.623 139.01 564.603 139.19H551.253V136.7H562.623L561.153 137.48C561.173 136.56 560.983 135.75 560.583 135.05C560.183 134.35 559.633 133.8 558.933 133.4C558.253 133 557.463 132.8 556.563 132.8C555.643 132.8 554.833 133 554.133 133.4C553.453 133.8 552.913 134.36 552.513 135.08C552.133 135.78 551.943 136.61 551.943 137.57V138.17C551.943 139.13 552.163 139.98 552.603 140.72C553.043 141.46 553.663 142.03 554.463 142.43C555.263 142.83 556.183 143.03 557.223 143.03C558.123 143.03 558.933 142.89 559.653 142.61C560.373 142.33 561.013 141.89 561.573 141.29L563.583 143.6C562.863 144.44 561.953 145.09 560.853 145.55C559.773 145.99 558.533 146.21 557.133 146.21ZM568.265 146V129.98H571.835V134.39L571.415 133.1C571.895 132.02 572.645 131.2 573.665 130.64C574.705 130.08 575.995 129.8 577.535 129.8V133.37C577.375 133.33 577.225 133.31 577.085 133.31C576.945 133.29 576.805 133.28 576.665 133.28C575.245 133.28 574.115 133.7 573.275 134.54C572.435 135.36 572.015 136.59 572.015 138.23V146H568.265ZM580.716 146V129.98H584.466V146H580.716ZM582.606 127.34C581.906 127.34 581.326 127.12 580.866 126.68C580.426 126.24 580.206 125.71 580.206 125.09C580.206 124.45 580.426 123.92 580.866 123.5C581.326 123.06 581.906 122.84 582.606 122.84C583.306 122.84 583.876 123.05 584.316 123.47C584.776 123.87 585.006 124.38 585.006 125C585.006 125.66 584.786 126.22 584.346 126.68C583.906 127.12 583.326 127.34 582.606 127.34ZM598.478 129.8C599.758 129.8 600.898 130.05 601.898 130.55C602.918 131.05 603.718 131.82 604.298 132.86C604.878 133.88 605.168 135.2 605.168 136.82V146H601.418V137.3C601.418 135.88 601.078 134.82 600.398 134.12C599.738 133.42 598.808 133.07 597.608 133.07C596.728 133.07 595.948 133.25 595.268 133.61C594.588 133.97 594.058 134.51 593.678 135.23C593.318 135.93 593.138 136.82 593.138 137.9V146H589.388V129.98H592.958V134.3L592.328 132.98C592.888 131.96 593.698 131.18 594.758 130.64C595.838 130.08 597.078 129.8 598.478 129.8ZM617.214 152.03C615.734 152.03 614.284 151.83 612.864 151.43C611.464 151.05 610.314 150.49 609.414 149.75L611.094 146.93C611.794 147.51 612.674 147.97 613.734 148.31C614.814 148.67 615.904 148.85 617.004 148.85C618.764 148.85 620.054 148.44 620.874 147.62C621.694 146.82 622.104 145.61 622.104 143.99V141.14L622.404 137.51L622.284 133.88V129.98H625.854V143.57C625.854 146.47 625.114 148.6 623.634 149.96C622.154 151.34 620.014 152.03 617.214 152.03ZM616.734 145.28C615.214 145.28 613.834 144.96 612.594 144.32C611.374 143.66 610.404 142.75 609.684 141.59C608.984 140.43 608.634 139.07 608.634 137.51C608.634 135.97 608.984 134.62 609.684 133.46C610.404 132.3 611.374 131.4 612.594 130.76C613.834 130.12 615.214 129.8 616.734 129.8C618.094 129.8 619.314 130.07 620.394 130.61C621.474 131.15 622.334 131.99 622.974 133.13C623.634 134.27 623.964 135.73 623.964 137.51C623.964 139.29 623.634 140.76 622.974 141.92C622.334 143.06 621.474 143.91 620.394 144.47C619.314 145.01 618.094 145.28 616.734 145.28ZM617.304 142.1C618.244 142.1 619.084 141.91 619.824 141.53C620.564 141.13 621.134 140.59 621.534 139.91C621.954 139.21 622.164 138.41 622.164 137.51C622.164 136.61 621.954 135.82 621.534 135.14C621.134 134.44 620.564 133.91 619.824 133.55C619.084 133.17 618.244 132.98 617.304 132.98C616.364 132.98 615.514 133.17 614.754 133.55C614.014 133.91 613.434 134.44 613.014 135.14C612.614 135.82 612.414 136.61 612.414 137.51C612.414 138.41 612.614 139.21 613.014 139.91C613.434 140.59 614.014 141.13 614.754 141.53C615.514 141.91 616.364 142.1 617.304 142.1ZM645.105 146.21C643.345 146.21 641.985 145.76 641.025 144.86C640.065 143.94 639.585 142.59 639.585 140.81V126.44H643.335V140.72C643.335 141.48 643.525 142.07 643.905 142.49C644.305 142.91 644.855 143.12 645.555 143.12C646.395 143.12 647.095 142.9 647.655 142.46L648.705 145.13C648.265 145.49 647.725 145.76 647.085 145.94C646.445 146.12 645.785 146.21 645.105 146.21ZM636.945 133.1V130.1H647.625V133.1H636.945ZM660.88 129.8C662.16 129.8 663.3 130.05 664.3 130.55C665.32 131.05 666.12 131.82 666.7 132.86C667.28 133.88 667.57 135.2 667.57 136.82V146H663.82V137.3C663.82 135.88 663.48 134.82 662.8 134.12C662.14 133.42 661.21 133.07 660.01 133.07C659.13 133.07 658.35 133.25 657.67 133.61C656.99 133.97 656.46 134.51 656.08 135.23C655.72 135.93 655.54 136.82 655.54 137.9V146H651.79V123.74H655.54V134.3L654.73 132.98C655.29 131.96 656.1 131.18 657.16 130.64C658.24 130.08 659.48 129.8 660.88 129.8ZM679.886 146.21C678.106 146.21 676.546 145.86 675.206 145.16C673.886 144.44 672.856 143.46 672.116 142.22C671.396 140.98 671.036 139.57 671.036 137.99C671.036 136.39 671.386 134.98 672.086 133.76C672.806 132.52 673.786 131.55 675.026 130.85C676.286 130.15 677.716 129.8 679.316 129.8C680.876 129.8 682.266 130.14 683.486 130.82C684.706 131.5 685.666 132.46 686.366 133.7C687.066 134.94 687.416 136.4 687.416 138.08C687.416 138.24 687.406 138.42 687.386 138.62C687.386 138.82 687.376 139.01 687.356 139.19H674.006V136.7H685.376L683.906 137.48C683.926 136.56 683.736 135.75 683.336 135.05C682.936 134.35 682.386 133.8 681.686 133.4C681.006 133 680.216 132.8 679.316 132.8C678.396 132.8 677.586 133 676.886 133.4C676.206 133.8 675.666 134.36 675.266 135.08C674.886 135.78 674.696 136.61 674.696 137.57V138.17C674.696 139.13 674.916 139.98 675.356 140.72C675.796 141.46 676.416 142.03 677.216 142.43C678.016 142.83 678.936 143.03 679.976 143.03C680.876 143.03 681.686 142.89 682.406 142.61C683.126 142.33 683.766 141.89 684.326 141.29L686.336 143.6C685.616 144.44 684.706 145.09 683.606 145.55C682.526 145.99 681.286 146.21 679.886 146.21ZM699.67 146V125H702.88L716.05 141.17H714.46V125H718.33V146H715.12L701.95 129.83H703.54V146H699.67ZM731.127 146.21C729.347 146.21 727.787 145.86 726.447 145.16C725.127 144.44 724.097 143.46 723.357 142.22C722.637 140.98 722.277 139.57 722.277 137.99C722.277 136.39 722.627 134.98 723.327 133.76C724.047 132.52 725.027 131.55 726.267 130.85C727.527 130.15 728.957 129.8 730.557 129.8C732.117 129.8 733.507 130.14 734.727 130.82C735.947 131.5 736.907 132.46 737.607 133.7C738.307 134.94 738.657 136.4 738.657 138.08C738.657 138.24 738.647 138.42 738.627 138.62C738.627 138.82 738.617 139.01 738.597 139.19H725.247V136.7H736.617L735.147 137.48C735.167 136.56 734.977 135.75 734.577 135.05C734.177 134.35 733.627 133.8 732.927 133.4C732.247 133 731.457 132.8 730.557 132.8C729.637 132.8 728.827 133 728.127 133.4C727.447 133.8 726.907 134.36 726.507 135.08C726.127 135.78 725.937 136.61 725.937 137.57V138.17C725.937 139.13 726.157 139.98 726.597 140.72C727.037 141.46 727.657 142.03 728.457 142.43C729.257 142.83 730.177 143.03 731.217 143.03C732.117 143.03 732.927 142.89 733.647 142.61C734.367 142.33 735.007 141.89 735.567 141.29L737.577 143.6C736.857 144.44 735.947 145.09 734.847 145.55C733.767 145.99 732.527 146.21 731.127 146.21ZM745.506 146L739.626 129.98H743.166L748.206 144.11H746.526L751.806 129.98H754.956L760.086 144.11H758.436L763.626 129.98H766.956L761.046 146H757.446L752.766 133.49H753.876L749.106 146H745.506ZM781.785 133.73H792.225V136.94H781.785V133.73ZM782.085 142.73H793.935V146H778.185V125H793.515V128.27H782.085V142.73ZM797.923 146V129.98H801.493V134.39L801.073 133.1C801.553 132.02 802.303 131.2 803.323 130.64C804.363 130.08 805.653 129.8 807.193 129.8V133.37C807.033 133.33 806.883 133.31 806.743 133.31C806.603 133.29 806.463 133.28 806.323 133.28C804.903 133.28 803.773 133.7 802.933 134.54C802.093 135.36 801.673 136.59 801.673 138.23V146H797.923ZM819.101 146V142.76L818.891 142.07V136.4C818.891 135.3 818.561 134.45 817.901 133.85C817.241 133.23 816.241 132.92 814.901 132.92C814.001 132.92 813.111 133.06 812.231 133.34C811.371 133.62 810.641 134.01 810.041 134.51L808.571 131.78C809.431 131.12 810.451 130.63 811.631 130.31C812.831 129.97 814.071 129.8 815.351 129.8C817.671 129.8 819.461 130.36 820.721 131.48C822.001 132.58 822.641 134.29 822.641 136.61V146H819.101ZM814.061 146.21C812.861 146.21 811.811 146.01 810.911 145.61C810.011 145.19 809.311 144.62 808.811 143.9C808.331 143.16 808.091 142.33 808.091 141.41C808.091 140.51 808.301 139.7 808.721 138.98C809.161 138.26 809.871 137.69 810.851 137.27C811.831 136.85 813.131 136.64 814.751 136.64H819.401V139.13H815.021C813.741 139.13 812.881 139.34 812.441 139.76C812.001 140.16 811.781 140.66 811.781 141.26C811.781 141.94 812.051 142.48 812.591 142.88C813.131 143.28 813.881 143.48 814.841 143.48C815.761 143.48 816.581 143.27 817.301 142.85C818.041 142.43 818.571 141.81 818.891 140.99L819.521 143.24C819.161 144.18 818.511 144.91 817.571 145.43C816.651 145.95 815.481 146.21 814.061 146.21ZM842.945 146.21C841.305 146.21 839.845 145.86 838.565 145.16C837.285 144.44 836.275 143.46 835.535 142.22C834.795 140.98 834.425 139.57 834.425 137.99C834.425 136.39 834.795 134.98 835.535 133.76C836.275 132.52 837.285 131.55 838.565 130.85C839.845 130.15 841.305 129.8 842.945 129.8C844.605 129.8 846.075 130.15 847.355 130.85C848.655 131.55 849.665 132.51 850.385 133.73C851.125 134.95 851.495 136.37 851.495 137.99C851.495 139.57 851.125 140.98 850.385 142.22C849.665 143.46 848.655 144.44 847.355 145.16C846.075 145.86 844.605 146.21 842.945 146.21ZM842.945 143C843.865 143 844.685 142.8 845.405 142.4C846.125 142 846.685 141.42 847.085 140.66C847.505 139.9 847.715 139.01 847.715 137.99C847.715 136.95 847.505 136.06 847.085 135.32C846.685 134.56 846.125 133.98 845.405 133.58C844.685 133.18 843.875 132.98 842.975 132.98C842.055 132.98 841.235 133.18 840.515 133.58C839.815 133.98 839.255 134.56 838.835 135.32C838.415 136.06 838.205 136.95 838.205 137.99C838.205 139.01 838.415 139.9 838.835 140.66C839.255 141.42 839.815 142 840.515 142.4C841.235 142.8 842.045 143 842.945 143ZM855.591 146V129.08C855.591 127.4 856.081 126.06 857.061 125.06C858.061 124.04 859.481 123.53 861.321 123.53C861.981 123.53 862.601 123.6 863.181 123.74C863.781 123.88 864.281 124.1 864.681 124.4L863.661 127.22C863.381 127 863.061 126.84 862.701 126.74C862.341 126.62 861.971 126.56 861.591 126.56C860.811 126.56 860.221 126.78 859.821 127.22C859.421 127.64 859.221 128.28 859.221 129.14V130.94L859.341 132.62V146H855.591ZM852.951 133.1V130.1H863.631V133.1H852.951ZM874.806 146V125H878.706V142.7H889.686V146H874.806ZM899.459 146.21C897.819 146.21 896.359 145.86 895.079 145.16C893.799 144.44 892.789 143.46 892.049 142.22C891.309 140.98 890.939 139.57 890.939 137.99C890.939 136.39 891.309 134.98 892.049 133.76C892.789 132.52 893.799 131.55 895.079 130.85C896.359 130.15 897.819 129.8 899.459 129.8C901.119 129.8 902.589 130.15 903.869 130.85C905.169 131.55 906.179 132.51 906.899 133.73C907.639 134.95 908.009 136.37 908.009 137.99C908.009 139.57 907.639 140.98 906.899 142.22C906.179 143.46 905.169 144.44 903.869 145.16C902.589 145.86 901.119 146.21 899.459 146.21ZM899.459 143C900.379 143 901.199 142.8 901.919 142.4C902.639 142 903.199 141.42 903.599 140.66C904.019 139.9 904.229 139.01 904.229 137.99C904.229 136.95 904.019 136.06 903.599 135.32C903.199 134.56 902.639 133.98 901.919 133.58C901.199 133.18 900.389 132.98 899.489 132.98C898.569 132.98 897.749 133.18 897.029 133.58C896.329 133.98 895.769 134.56 895.349 135.32C894.929 136.06 894.719 136.95 894.719 137.99C894.719 139.01 894.929 139.9 895.349 140.66C895.769 141.42 896.329 142 897.029 142.4C897.749 142.8 898.559 143 899.459 143ZM918.945 146.21C917.265 146.21 915.765 145.86 914.445 145.16C913.145 144.44 912.125 143.46 911.385 142.22C910.645 140.98 910.275 139.57 910.275 137.99C910.275 136.39 910.645 134.98 911.385 133.76C912.125 132.52 913.145 131.55 914.445 130.85C915.765 130.15 917.265 129.8 918.945 129.8C920.505 129.8 921.875 130.12 923.055 130.76C924.255 131.38 925.165 132.3 925.785 133.52L922.905 135.2C922.425 134.44 921.835 133.88 921.135 133.52C920.455 133.16 919.715 132.98 918.915 132.98C917.995 132.98 917.165 133.18 916.425 133.58C915.685 133.98 915.105 134.56 914.685 135.32C914.265 136.06 914.055 136.95 914.055 137.99C914.055 139.03 914.265 139.93 914.685 140.69C915.105 141.43 915.685 142 916.425 142.4C917.165 142.8 917.995 143 918.915 143C919.715 143 920.455 142.82 921.135 142.46C921.835 142.1 922.425 141.54 922.905 140.78L925.785 142.46C925.165 143.66 924.255 144.59 923.055 145.25C921.875 145.89 920.505 146.21 918.945 146.21ZM938.896 146V142.76L938.686 142.07V136.4C938.686 135.3 938.356 134.45 937.696 133.85C937.036 133.23 936.036 132.92 934.696 132.92C933.796 132.92 932.906 133.06 932.026 133.34C931.166 133.62 930.436 134.01 929.836 134.51L928.366 131.78C929.226 131.12 930.246 130.63 931.426 130.31C932.626 129.97 933.866 129.8 935.146 129.8C937.466 129.8 939.256 130.36 940.516 131.48C941.796 132.58 942.436 134.29 942.436 136.61V146H938.896ZM933.856 146.21C932.656 146.21 931.606 146.01 930.706 145.61C929.806 145.19 929.106 144.62 928.606 143.9C928.126 143.16 927.886 142.33 927.886 141.41C927.886 140.51 928.096 139.7 928.516 138.98C928.956 138.26 929.666 137.69 930.646 137.27C931.626 136.85 932.926 136.64 934.546 136.64H939.196V139.13H934.816C933.536 139.13 932.676 139.34 932.236 139.76C931.796 140.16 931.576 140.66 931.576 141.26C931.576 141.94 931.846 142.48 932.386 142.88C932.926 143.28 933.676 143.48 934.636 143.48C935.556 143.48 936.376 143.27 937.096 142.85C937.836 142.43 938.366 141.81 938.686 140.99L939.316 143.24C938.956 144.18 938.306 144.91 937.366 145.43C936.446 145.95 935.276 146.21 933.856 146.21ZM947.249 146V123.74H950.999V146H947.249ZM964.572 146V125H973.752C976.032 125 978.032 125.44 979.752 126.32C981.472 127.2 982.812 128.42 983.772 129.98C984.732 131.54 985.212 133.38 985.212 135.5C985.212 137.6 984.732 139.44 983.772 141.02C982.812 142.58 981.472 143.8 979.752 144.68C978.032 145.56 976.032 146 973.752 146H964.572ZM968.472 142.7H973.572C975.152 142.7 976.512 142.4 977.652 141.8C978.812 141.2 979.702 140.36 980.322 139.28C980.962 138.2 981.282 136.94 981.282 135.5C981.282 134.04 980.962 132.78 980.322 131.72C979.702 130.64 978.812 129.8 977.652 129.2C976.512 128.6 975.152 128.3 973.572 128.3H968.472V142.7ZM998.867 146V142.76L998.657 142.07V136.4C998.657 135.3 998.327 134.45 997.667 133.85C997.007 133.23 996.007 132.92 994.667 132.92C993.767 132.92 992.877 133.06 991.997 133.34C991.137 133.62 990.407 134.01 989.807 134.51L988.337 131.78C989.197 131.12 990.217 130.63 991.397 130.31C992.597 129.97 993.837 129.8 995.117 129.8C997.437 129.8 999.227 130.36 1000.49 131.48C1001.77 132.58 1002.41 134.29 1002.41 136.61V146H998.867ZM993.827 146.21C992.627 146.21 991.577 146.01 990.677 145.61C989.777 145.19 989.077 144.62 988.577 143.9C988.097 143.16 987.857 142.33 987.857 141.41C987.857 140.51 988.067 139.7 988.487 138.98C988.927 138.26 989.637 137.69 990.617 137.27C991.597 136.85 992.897 136.64 994.517 136.64H999.167V139.13H994.787C993.507 139.13 992.647 139.34 992.207 139.76C991.767 140.16 991.547 140.66 991.547 141.26C991.547 141.94 991.817 142.48 992.357 142.88C992.897 143.28 993.647 143.48 994.607 143.48C995.527 143.48 996.347 143.27 997.067 142.85C997.807 142.43 998.337 141.81 998.657 140.99L999.287 143.24C998.927 144.18 998.277 144.91 997.337 145.43C996.417 145.95 995.247 146.21 993.827 146.21ZM1013.25 146.21C1011.49 146.21 1010.13 145.76 1009.17 144.86C1008.21 143.94 1007.73 142.59 1007.73 140.81V126.44H1011.48V140.72C1011.48 141.48 1011.67 142.07 1012.05 142.49C1012.45 142.91 1013 143.12 1013.7 143.12C1014.54 143.12 1015.24 142.9 1015.8 142.46L1016.85 145.13C1016.41 145.49 1015.87 145.76 1015.23 145.94C1014.59 146.12 1013.93 146.21 1013.25 146.21ZM1005.09 133.1V130.1H1015.77V133.1H1005.09ZM1029.8 146V142.76L1029.59 142.07V136.4C1029.59 135.3 1029.26 134.45 1028.6 133.85C1027.94 133.23 1026.94 132.92 1025.6 132.92C1024.7 132.92 1023.81 133.06 1022.93 133.34C1022.07 133.62 1021.34 134.01 1020.74 134.51L1019.27 131.78C1020.13 131.12 1021.15 130.63 1022.33 130.31C1023.53 129.97 1024.77 129.8 1026.05 129.8C1028.37 129.8 1030.16 130.36 1031.42 131.48C1032.7 132.58 1033.34 134.29 1033.34 136.61V146H1029.8ZM1024.76 146.21C1023.56 146.21 1022.51 146.01 1021.61 145.61C1020.71 145.19 1020.01 144.62 1019.51 143.9C1019.03 143.16 1018.79 142.33 1018.79 141.41C1018.79 140.51 1019 139.7 1019.42 138.98C1019.86 138.26 1020.57 137.69 1021.55 137.27C1022.53 136.85 1023.83 136.64 1025.45 136.64H1030.1V139.13H1025.72C1024.44 139.13 1023.58 139.34 1023.14 139.76C1022.7 140.16 1022.48 140.66 1022.48 141.26C1022.48 141.94 1022.75 142.48 1023.29 142.88C1023.83 143.28 1024.58 143.48 1025.54 143.48C1026.46 143.48 1027.28 143.27 1028 142.85C1028.74 142.43 1029.27 141.81 1029.59 140.99L1030.22 143.24C1029.86 144.18 1029.21 144.91 1028.27 145.43C1027.35 145.95 1026.18 146.21 1024.76 146.21ZM1043.84 146L1053.29 125H1057.13L1066.61 146H1062.53L1054.4 127.07H1055.96L1047.86 146H1043.84ZM1048.19 141.14L1049.24 138.08H1060.58L1061.63 141.14H1048.19ZM1078.01 129.8C1079.29 129.8 1080.43 130.05 1081.43 130.55C1082.45 131.05 1083.25 131.82 1083.83 132.86C1084.41 133.88 1084.7 135.2 1084.7 136.82V146H1080.95V137.3C1080.95 135.88 1080.61 134.82 1079.93 134.12C1079.27 133.42 1078.34 133.07 1077.14 133.07C1076.26 133.07 1075.48 133.25 1074.8 133.61C1074.12 133.97 1073.59 134.51 1073.21 135.23C1072.85 135.93 1072.67 136.82 1072.67 137.9V146H1068.92V129.98H1072.49V134.3L1071.86 132.98C1072.42 131.96 1073.23 131.18 1074.29 130.64C1075.37 130.08 1076.61 129.8 1078.01 129.8ZM1099.33 146V142.76L1099.12 142.07V136.4C1099.12 135.3 1098.79 134.45 1098.13 133.85C1097.47 133.23 1096.47 132.92 1095.13 132.92C1094.23 132.92 1093.34 133.06 1092.46 133.34C1091.6 133.62 1090.87 134.01 1090.27 134.51L1088.8 131.78C1089.66 131.12 1090.68 130.63 1091.86 130.31C1093.06 129.97 1094.3 129.8 1095.58 129.8C1097.9 129.8 1099.69 130.36 1100.95 131.48C1102.23 132.58 1102.87 134.29 1102.87 136.61V146H1099.33ZM1094.29 146.21C1093.09 146.21 1092.04 146.01 1091.14 145.61C1090.24 145.19 1089.54 144.62 1089.04 143.9C1088.56 143.16 1088.32 142.33 1088.32 141.41C1088.32 140.51 1088.53 139.7 1088.95 138.98C1089.39 138.26 1090.1 137.69 1091.08 137.27C1092.06 136.85 1093.36 136.64 1094.98 136.64H1099.63V139.13H1095.25C1093.97 139.13 1093.11 139.34 1092.67 139.76C1092.23 140.16 1092.01 140.66 1092.01 141.26C1092.01 141.94 1092.28 142.48 1092.82 142.88C1093.36 143.28 1094.11 143.48 1095.07 143.48C1095.99 143.48 1096.81 143.27 1097.53 142.85C1098.27 142.43 1098.8 141.81 1099.12 140.99L1099.75 143.24C1099.39 144.18 1098.74 144.91 1097.8 145.43C1096.88 145.95 1095.71 146.21 1094.29 146.21ZM1107.68 146V123.74H1111.43V146H1107.68ZM1117.67 152.03C1116.89 152.03 1116.11 151.9 1115.33 151.64C1114.55 151.38 1113.9 151.02 1113.38 150.56L1114.88 147.8C1115.26 148.14 1115.69 148.41 1116.17 148.61C1116.65 148.81 1117.14 148.91 1117.64 148.91C1118.32 148.91 1118.87 148.74 1119.29 148.4C1119.71 148.06 1120.1 147.49 1120.46 146.69L1121.39 144.59L1121.69 144.14L1127.75 129.98H1131.35L1123.85 147.29C1123.35 148.49 1122.79 149.44 1122.17 150.14C1121.57 150.84 1120.89 151.33 1120.13 151.61C1119.39 151.89 1118.57 152.03 1117.67 152.03ZM1120.97 146.57L1113.74 129.98H1117.64L1123.52 143.81L1120.97 146.57ZM1140.16 146.21C1138.4 146.21 1137.04 145.76 1136.08 144.86C1135.12 143.94 1134.64 142.59 1134.64 140.81V126.44H1138.39V140.72C1138.39 141.48 1138.58 142.07 1138.96 142.49C1139.36 142.91 1139.91 143.12 1140.61 143.12C1141.45 143.12 1142.15 142.9 1142.71 142.46L1143.76 145.13C1143.32 145.49 1142.78 145.76 1142.14 145.94C1141.5 146.12 1140.84 146.21 1140.16 146.21ZM1132 133.1V130.1H1142.68V133.1H1132ZM1146.85 146V129.98H1150.6V146H1146.85ZM1148.74 127.34C1148.04 127.34 1147.46 127.12 1147 126.68C1146.56 126.24 1146.34 125.71 1146.34 125.09C1146.34 124.45 1146.56 123.92 1147 123.5C1147.46 123.06 1148.04 122.84 1148.74 122.84C1149.44 122.84 1150.01 123.05 1150.45 123.47C1150.91 123.87 1151.14 124.38 1151.14 125C1151.14 125.66 1150.92 126.22 1150.48 126.68C1150.04 127.12 1149.46 127.34 1148.74 127.34ZM1162.87 146.21C1161.19 146.21 1159.69 145.86 1158.37 145.16C1157.07 144.44 1156.05 143.46 1155.31 142.22C1154.57 140.98 1154.2 139.57 1154.2 137.99C1154.2 136.39 1154.57 134.98 1155.31 133.76C1156.05 132.52 1157.07 131.55 1158.37 130.85C1159.69 130.15 1161.19 129.8 1162.87 129.8C1164.43 129.8 1165.8 130.12 1166.98 130.76C1168.18 131.38 1169.09 132.3 1169.71 133.52L1166.83 135.2C1166.35 134.44 1165.76 133.88 1165.06 133.52C1164.38 133.16 1163.64 132.98 1162.84 132.98C1161.92 132.98 1161.09 133.18 1160.35 133.58C1159.61 133.98 1159.03 134.56 1158.61 135.32C1158.19 136.06 1157.98 136.95 1157.98 137.99C1157.98 139.03 1158.19 139.93 1158.61 140.69C1159.03 141.43 1159.61 142 1160.35 142.4C1161.09 142.8 1161.92 143 1162.84 143C1163.64 143 1164.38 142.82 1165.06 142.46C1165.76 142.1 1166.35 141.54 1166.83 140.78L1169.71 142.46C1169.09 143.66 1168.18 144.59 1166.98 145.25C1165.8 145.89 1164.43 146.21 1162.87 146.21ZM1177.9 146.21C1176.56 146.21 1175.27 146.04 1174.03 145.7C1172.81 145.34 1171.84 144.91 1171.12 144.41L1172.56 141.56C1173.28 142.02 1174.14 142.4 1175.14 142.7C1176.14 143 1177.14 143.15 1178.14 143.15C1179.32 143.15 1180.17 142.99 1180.69 142.67C1181.23 142.35 1181.5 141.92 1181.5 141.38C1181.5 140.94 1181.32 140.61 1180.96 140.39C1180.6 140.15 1180.13 139.97 1179.55 139.85C1178.97 139.73 1178.32 139.62 1177.6 139.52C1176.9 139.42 1176.19 139.29 1175.47 139.13C1174.77 138.95 1174.13 138.7 1173.55 138.38C1172.97 138.04 1172.5 137.59 1172.14 137.03C1171.78 136.47 1171.6 135.73 1171.6 134.81C1171.6 133.79 1171.89 132.91 1172.47 132.17C1173.05 131.41 1173.86 130.83 1174.9 130.43C1175.96 130.01 1177.21 129.8 1178.65 129.8C1179.73 129.8 1180.82 129.92 1181.92 130.16C1183.02 130.4 1183.93 130.74 1184.65 131.18L1183.21 134.03C1182.45 133.57 1181.68 133.26 1180.9 133.1C1180.14 132.92 1179.38 132.83 1178.62 132.83C1177.48 132.83 1176.63 133 1176.07 133.34C1175.53 133.68 1175.26 134.11 1175.26 134.63C1175.26 135.11 1175.44 135.47 1175.8 135.71C1176.16 135.95 1176.63 136.14 1177.21 136.28C1177.79 136.42 1178.43 136.54 1179.13 136.64C1179.85 136.72 1180.56 136.85 1181.26 137.03C1181.96 137.21 1182.6 137.46 1183.18 137.78C1183.78 138.08 1184.26 138.51 1184.62 139.07C1184.98 139.63 1185.16 140.36 1185.16 141.26C1185.16 142.26 1184.86 143.13 1184.26 143.87C1183.68 144.61 1182.85 145.19 1181.77 145.61C1180.69 146.01 1179.4 146.21 1177.9 146.21Z" fill="white"/>
<path d="M78.08 70.144C76.816 70.144 75.64 69.936 74.552 69.52C73.48 69.088 72.544 68.488 71.744 67.72C70.96 66.936 70.344 66.032 69.896 65.008C69.464 63.968 69.248 62.832 69.248 61.6C69.248 60.368 69.464 59.24 69.896 58.216C70.344 57.176 70.96 56.272 71.744 55.504C72.544 54.72 73.48 54.12 74.552 53.704C75.624 53.272 76.8 53.056 78.08 53.056C79.344 53.056 80.512 53.272 81.584 53.704C82.656 54.12 83.584 54.712 84.368 55.48C85.168 56.248 85.784 57.152 86.216 58.192C86.664 59.232 86.888 60.368 86.888 61.6C86.888 62.832 86.664 63.968 86.216 65.008C85.784 66.048 85.168 66.952 84.368 67.72C83.584 68.488 82.656 69.088 81.584 69.52C80.512 69.936 79.344 70.144 78.08 70.144ZM78.08 68.56C79.088 68.56 80.016 68.392 80.864 68.056C81.728 67.704 82.472 67.216 83.096 66.592C83.736 65.952 84.232 65.216 84.584 64.384C84.936 63.536 85.112 62.608 85.112 61.6C85.112 60.592 84.936 59.672 84.584 58.84C84.232 57.992 83.736 57.256 83.096 56.632C82.472 55.992 81.728 55.504 80.864 55.168C80.016 54.816 79.088 54.64 78.08 54.64C77.072 54.64 76.136 54.816 75.272 55.168C74.408 55.504 73.656 55.992 73.016 56.632C72.392 57.256 71.896 57.992 71.528 58.84C71.176 59.672 71 60.592 71 61.6C71 62.592 71.176 63.512 71.528 64.36C71.896 65.208 72.392 65.952 73.016 66.592C73.656 67.216 74.408 67.704 75.272 68.056C76.136 68.392 77.072 68.56 78.08 68.56ZM95.7408 70.12C94.4928 70.12 93.3728 69.848 92.3808 69.304C91.4048 68.744 90.6368 67.984 90.0768 67.024C89.5168 66.048 89.2368 64.936 89.2368 63.688C89.2368 62.424 89.5168 61.312 90.0768 60.352C90.6368 59.392 91.4048 58.64 92.3808 58.096C93.3728 57.552 94.4928 57.28 95.7408 57.28C96.8128 57.28 97.7808 57.488 98.6448 57.904C99.5088 58.32 100.189 58.944 100.685 59.776L99.4128 60.64C98.9808 60 98.4448 59.528 97.8048 59.224C97.1648 58.92 96.4688 58.768 95.7168 58.768C94.8208 58.768 94.0128 58.976 93.2928 59.392C92.5728 59.792 92.0048 60.36 91.5888 61.096C91.1728 61.832 90.9648 62.696 90.9648 63.688C90.9648 64.68 91.1728 65.544 91.5888 66.28C92.0048 67.016 92.5728 67.592 93.2928 68.008C94.0128 68.408 94.8208 68.608 95.7168 68.608C96.4688 68.608 97.1648 68.456 97.8048 68.152C98.4448 67.848 98.9808 67.384 99.4128 66.76L100.685 67.624C100.189 68.44 99.5088 69.064 98.6448 69.496C97.7808 69.912 96.8128 70.12 95.7408 70.12ZM108.157 70.12C106.973 70.12 106.061 69.8 105.421 69.16C104.781 68.52 104.461 67.616 104.461 66.448V54.616H106.165V66.352C106.165 67.088 106.349 67.656 106.717 68.056C107.101 68.456 107.645 68.656 108.349 68.656C109.101 68.656 109.725 68.44 110.221 68.008L110.821 69.232C110.485 69.536 110.077 69.76 109.597 69.904C109.133 70.048 108.653 70.12 108.157 70.12ZM102.205 58.816V57.4H110.005V58.816H102.205ZM122.004 70V53.92L122.772 54.736H118.044V53.2H123.732V70H122.004ZM130.7 70L137.948 53.968L138.476 54.736H128.084L128.972 53.896V57.88H127.268V53.2H139.604V54.424L132.572 70H130.7ZM140.711 73.504L141.767 69.064L141.959 70.096C141.591 70.096 141.279 69.976 141.023 69.736C140.783 69.496 140.663 69.184 140.663 68.8C140.663 68.416 140.783 68.104 141.023 67.864C141.279 67.624 141.583 67.504 141.935 67.504C142.303 67.504 142.599 67.632 142.823 67.888C143.063 68.144 143.183 68.448 143.183 68.8C143.183 68.928 143.175 69.056 143.159 69.184C143.143 69.312 143.111 69.456 143.063 69.616C143.015 69.776 142.951 69.968 142.871 70.192L141.863 73.504H140.711ZM151.67 70V68.776L158.654 61.936C159.294 61.312 159.774 60.768 160.094 60.304C160.414 59.824 160.63 59.376 160.742 58.96C160.854 58.544 160.91 58.152 160.91 57.784C160.91 56.808 160.574 56.04 159.902 55.48C159.246 54.92 158.27 54.64 156.974 54.64C155.982 54.64 155.102 54.792 154.334 55.096C153.582 55.4 152.934 55.872 152.39 56.512L151.166 55.456C151.822 54.688 152.662 54.096 153.686 53.68C154.71 53.264 155.854 53.056 157.118 53.056C158.254 53.056 159.238 53.24 160.07 53.608C160.902 53.96 161.542 54.48 161.99 55.168C162.454 55.856 162.686 56.664 162.686 57.592C162.686 58.136 162.606 58.672 162.446 59.2C162.302 59.728 162.03 60.288 161.63 60.88C161.246 61.456 160.678 62.112 159.926 62.848L153.518 69.136L153.038 68.464H163.454V70H151.67ZM172.272 70.144C170.976 70.144 169.824 69.808 168.816 69.136C167.808 68.448 167.016 67.472 166.44 66.208C165.864 64.928 165.576 63.392 165.576 61.6C165.576 59.808 165.864 58.28 166.44 57.016C167.016 55.736 167.808 54.76 168.816 54.088C169.824 53.4 170.976 53.056 172.272 53.056C173.568 53.056 174.72 53.4 175.728 54.088C176.736 54.76 177.528 55.736 178.104 57.016C178.696 58.28 178.992 59.808 178.992 61.6C178.992 63.392 178.696 64.928 178.104 66.208C177.528 67.472 176.736 68.448 175.728 69.136C174.72 69.808 173.568 70.144 172.272 70.144ZM172.272 68.56C173.264 68.56 174.128 68.296 174.864 67.768C175.6 67.224 176.176 66.44 176.592 65.416C177.008 64.376 177.216 63.104 177.216 61.6C177.216 60.096 177.008 58.832 176.592 57.808C176.176 56.768 175.6 55.984 174.864 55.456C174.128 54.912 173.264 54.64 172.272 54.64C171.312 54.64 170.456 54.912 169.704 55.456C168.952 55.984 168.368 56.768 167.952 57.808C167.536 58.832 167.328 60.096 167.328 61.6C167.328 63.104 167.536 64.376 167.952 65.416C168.368 66.44 168.952 67.224 169.704 67.768C170.456 68.296 171.312 68.56 172.272 68.56ZM181.155 70V68.776L188.139 61.936C188.779 61.312 189.259 60.768 189.579 60.304C189.899 59.824 190.115 59.376 190.227 58.96C190.339 58.544 190.395 58.152 190.395 57.784C190.395 56.808 190.059 56.04 189.387 55.48C188.731 54.92 187.755 54.64 186.459 54.64C185.467 54.64 184.587 54.792 183.819 55.096C183.067 55.4 182.419 55.872 181.875 56.512L180.651 55.456C181.307 54.688 182.147 54.096 183.171 53.68C184.195 53.264 185.339 53.056 186.603 53.056C187.739 53.056 188.723 53.24 189.555 53.608C190.387 53.96 191.027 54.48 191.475 55.168C191.939 55.856 192.171 56.664 192.171 57.592C192.171 58.136 192.091 58.672 191.931 59.2C191.787 59.728 191.515 60.288 191.115 60.88C190.731 61.456 190.163 62.112 189.411 62.848L183.003 69.136L182.523 68.464H192.939V70H181.155ZM200.411 70.144C199.211 70.144 198.067 69.952 196.979 69.568C195.891 69.168 195.027 68.64 194.387 67.984L195.227 66.616C195.755 67.176 196.475 67.64 197.387 68.008C198.315 68.376 199.315 68.56 200.387 68.56C201.811 68.56 202.891 68.248 203.627 67.624C204.379 66.984 204.755 66.152 204.755 65.128C204.755 64.408 204.579 63.792 204.227 63.28C203.891 62.752 203.315 62.344 202.499 62.056C201.683 61.768 200.563 61.624 199.139 61.624H195.563L196.427 53.2H205.619V54.736H197.123L198.011 53.896L197.267 60.952L196.379 60.088H199.523C201.219 60.088 202.579 60.296 203.603 60.712C204.627 61.128 205.363 61.712 205.811 62.464C206.275 63.2 206.507 64.064 206.507 65.056C206.507 66 206.283 66.864 205.835 67.648C205.387 68.416 204.715 69.024 203.819 69.472C202.923 69.92 201.787 70.144 200.411 70.144Z" fill="#D39FE9"/>
<path d="M68.048 192L75.728 175.2H77.48L85.16 192H83.288L76.232 176.232H76.952L69.896 192H68.048ZM71.072 187.512L71.6 186.072H81.368L81.896 187.512H71.072ZM100.364 192.12C99.2764 192.12 98.2924 191.872 97.4124 191.376C96.5324 190.864 95.8284 190.136 95.3004 189.192C94.7884 188.232 94.5324 187.064 94.5324 185.688C94.5324 184.312 94.7884 183.152 95.3004 182.208C95.8124 181.248 96.5084 180.52 97.3884 180.024C98.2684 179.528 99.2604 179.28 100.364 179.28C101.564 179.28 102.636 179.552 103.58 180.096C104.54 180.624 105.292 181.376 105.836 182.352C106.38 183.312 106.652 184.424 106.652 185.688C106.652 186.968 106.38 188.088 105.836 189.048C105.292 190.008 104.54 190.76 103.58 191.304C102.636 191.848 101.564 192.12 100.364 192.12ZM93.8604 196.656V179.4H95.4924V183.192L95.3244 185.712L95.5644 188.256V196.656H93.8604ZM100.244 190.608C101.14 190.608 101.94 190.408 102.644 190.008C103.348 189.592 103.908 189.016 104.324 188.28C104.74 187.528 104.948 186.664 104.948 185.688C104.948 184.712 104.74 183.856 104.324 183.12C103.908 182.384 103.348 181.808 102.644 181.392C101.94 180.976 101.14 180.768 100.244 180.768C99.3484 180.768 98.5404 180.976 97.8204 181.392C97.1164 181.808 96.5564 182.384 96.1404 183.12C95.7404 183.856 95.5404 184.712 95.5404 185.688C95.5404 186.664 95.7404 187.528 96.1404 188.28C96.5564 189.016 97.1164 189.592 97.8204 190.008C98.5404 190.408 99.3484 190.608 100.244 190.608ZM110.126 192V179.4H111.758V182.832L111.59 182.232C111.942 181.272 112.534 180.544 113.366 180.048C114.198 179.536 115.23 179.28 116.462 179.28V180.936C116.398 180.936 116.334 180.936 116.27 180.936C116.206 180.92 116.142 180.912 116.078 180.912C114.75 180.912 113.71 181.32 112.958 182.136C112.206 182.936 111.83 184.08 111.83 185.568V192H110.126ZM126.53 192V189.216L126.458 188.76V184.104C126.458 183.032 126.154 182.208 125.546 181.632C124.954 181.056 124.066 180.768 122.882 180.768C122.066 180.768 121.29 180.904 120.554 181.176C119.818 181.448 119.194 181.808 118.682 182.256L117.914 180.984C118.554 180.44 119.322 180.024 120.218 179.736C121.114 179.432 122.058 179.28 123.05 179.28C124.682 179.28 125.938 179.688 126.818 180.504C127.714 181.304 128.162 182.528 128.162 184.176V192H126.53ZM122.186 192.12C121.242 192.12 120.418 191.968 119.714 191.664C119.026 191.344 118.498 190.912 118.13 190.368C117.762 189.808 117.578 189.168 117.578 188.448C117.578 187.792 117.73 187.2 118.034 186.672C118.354 186.128 118.866 185.696 119.57 185.376C120.29 185.04 121.25 184.872 122.45 184.872H126.794V186.144H122.498C121.282 186.144 120.434 186.36 119.954 186.792C119.49 187.224 119.258 187.76 119.258 188.4C119.258 189.12 119.538 189.696 120.098 190.128C120.658 190.56 121.442 190.776 122.45 190.776C123.41 190.776 124.234 190.56 124.922 190.128C125.626 189.68 126.138 189.04 126.458 188.208L126.842 189.384C126.522 190.216 125.962 190.88 125.162 191.376C124.378 191.872 123.386 192.12 122.186 192.12ZM138.022 192.12C136.774 192.12 135.654 191.848 134.662 191.304C133.686 190.744 132.918 189.984 132.358 189.024C131.798 188.048 131.518 186.936 131.518 185.688C131.518 184.424 131.798 183.312 132.358 182.352C132.918 181.392 133.686 180.64 134.662 180.096C135.654 179.552 136.774 179.28 138.022 179.28C139.094 179.28 140.062 179.488 140.926 179.904C141.79 180.32 142.47 180.944 142.966 181.776L141.694 182.64C141.262 182 140.726 181.528 140.086 181.224C139.446 180.92 138.75 180.768 137.998 180.768C137.102 180.768 136.294 180.976 135.574 181.392C134.854 181.792 134.286 182.36 133.87 183.096C133.454 183.832 133.246 184.696 133.246 185.688C133.246 186.68 133.454 187.544 133.87 188.28C134.286 189.016 134.854 189.592 135.574 190.008C136.294 190.408 137.102 190.608 137.998 190.608C138.75 190.608 139.446 190.456 140.086 190.152C140.726 189.848 141.262 189.384 141.694 188.76L142.966 189.624C142.47 190.44 141.79 191.064 140.926 191.496C140.062 191.912 139.094 192.12 138.022 192.12ZM150.438 192.12C149.254 192.12 148.342 191.8 147.702 191.16C147.062 190.52 146.742 189.616 146.742 188.448V176.616H148.446V188.352C148.446 189.088 148.63 189.656 148.998 190.056C149.382 190.456 149.926 190.656 150.63 190.656C151.382 190.656 152.006 190.44 152.502 190.008L153.102 191.232C152.766 191.536 152.358 191.76 151.878 191.904C151.414 192.048 150.934 192.12 150.438 192.12ZM144.486 180.816V179.4H152.286V180.816H144.486ZM156.204 192V179.4H157.908V192H156.204ZM157.068 176.616C156.716 176.616 156.42 176.496 156.18 176.256C155.94 176.016 155.82 175.728 155.82 175.392C155.82 175.056 155.94 174.776 156.18 174.552C156.42 174.312 156.716 174.192 157.068 174.192C157.42 174.192 157.716 174.304 157.956 174.528C158.196 174.752 158.316 175.032 158.316 175.368C158.316 175.72 158.196 176.016 157.956 176.256C157.732 176.496 157.436 176.616 157.068 176.616ZM167.881 192.12C166.633 192.12 165.513 191.848 164.521 191.304C163.545 190.744 162.777 189.984 162.217 189.024C161.657 188.048 161.377 186.936 161.377 185.688C161.377 184.424 161.657 183.312 162.217 182.352C162.777 181.392 163.545 180.64 164.521 180.096C165.513 179.552 166.633 179.28 167.881 179.28C168.953 179.28 169.921 179.488 170.785 179.904C171.649 180.32 172.329 180.944 172.825 181.776L171.553 182.64C171.121 182 170.585 181.528 169.945 181.224C169.305 180.92 168.609 180.768 167.857 180.768C166.961 180.768 166.153 180.976 165.433 181.392C164.713 181.792 164.145 182.36 163.729 183.096C163.313 183.832 163.105 184.696 163.105 185.688C163.105 186.68 163.313 187.544 163.729 188.28C164.145 189.016 164.713 189.592 165.433 190.008C166.153 190.408 166.961 190.608 167.857 190.608C168.609 190.608 169.305 190.456 169.945 190.152C170.585 189.848 171.121 189.384 171.553 188.76L172.825 189.624C172.329 190.44 171.649 191.064 170.785 191.496C169.921 191.912 168.953 192.12 167.881 192.12ZM184.069 192V189.216L183.997 188.76V184.104C183.997 183.032 183.693 182.208 183.085 181.632C182.493 181.056 181.605 180.768 180.421 180.768C179.605 180.768 178.829 180.904 178.093 181.176C177.357 181.448 176.733 181.808 176.221 182.256L175.453 180.984C176.093 180.44 176.861 180.024 177.757 179.736C178.653 179.432 179.597 179.28 180.589 179.28C182.221 179.28 183.477 179.688 184.357 180.504C185.253 181.304 185.701 182.528 185.701 184.176V192H184.069ZM179.725 192.12C178.781 192.12 177.957 191.968 177.253 191.664C176.565 191.344 176.037 190.912 175.669 190.368C175.301 189.808 175.117 189.168 175.117 188.448C175.117 187.792 175.269 187.2 175.573 186.672C175.893 186.128 176.405 185.696 177.109 185.376C177.829 185.04 178.789 184.872 179.989 184.872H184.333V186.144H180.037C178.821 186.144 177.973 186.36 177.493 186.792C177.029 187.224 176.797 187.76 176.797 188.4C176.797 189.12 177.077 189.696 177.637 190.128C178.197 190.56 178.981 190.776 179.989 190.776C180.949 190.776 181.773 190.56 182.461 190.128C183.165 189.68 183.677 189.04 183.997 188.208L184.381 189.384C184.061 190.216 183.501 190.88 182.701 191.376C181.917 191.872 180.925 192.12 179.725 192.12ZM190.329 192V174.192H192.033V192H190.329ZM203.056 192V179.4H204.76V192H203.056ZM203.92 176.616C203.568 176.616 203.272 176.496 203.032 176.256C202.792 176.016 202.672 175.728 202.672 175.392C202.672 175.056 202.792 174.776 203.032 174.552C203.272 174.312 203.568 174.192 203.92 174.192C204.272 174.192 204.568 174.304 204.808 174.528C205.048 174.752 205.168 175.032 205.168 175.368C205.168 175.72 205.048 176.016 204.808 176.256C204.584 176.496 204.288 176.616 203.92 176.616ZM215.933 179.28C216.957 179.28 217.853 179.48 218.621 179.88C219.405 180.264 220.013 180.856 220.445 181.656C220.893 182.456 221.117 183.464 221.117 184.68V192H219.413V184.848C219.413 183.52 219.077 182.52 218.405 181.848C217.749 181.16 216.821 180.816 215.621 180.816C214.725 180.816 213.941 181 213.269 181.368C212.613 181.72 212.101 182.24 211.733 182.928C211.381 183.6 211.205 184.416 211.205 185.376V192H209.501V179.4H211.133V182.856L210.869 182.208C211.269 181.296 211.909 180.584 212.789 180.072C213.669 179.544 214.717 179.28 215.933 179.28ZM229.704 192.12C228.52 192.12 227.608 191.8 226.968 191.16C226.328 190.52 226.008 189.616 226.008 188.448V176.616H227.712V188.352C227.712 189.088 227.896 189.656 228.264 190.056C228.648 190.456 229.192 190.656 229.896 190.656C230.648 190.656 231.272 190.44 231.768 190.008L232.368 191.232C232.032 191.536 231.624 191.76 231.144 191.904C230.68 192.048 230.2 192.12 229.704 192.12ZM223.752 180.816V179.4H231.552V180.816H223.752ZM235.47 192V179.4H237.102V182.832L236.934 182.232C237.286 181.272 237.878 180.544 238.71 180.048C239.542 179.536 240.574 179.28 241.806 179.28V180.936C241.742 180.936 241.678 180.936 241.614 180.936C241.55 180.92 241.486 180.912 241.422 180.912C240.094 180.912 239.054 181.32 238.302 182.136C237.55 182.936 237.174 184.08 237.174 185.568V192H235.47ZM249.934 192.12C248.718 192.12 247.622 191.848 246.646 191.304C245.686 190.744 244.926 189.984 244.366 189.024C243.806 188.048 243.526 186.936 243.526 185.688C243.526 184.424 243.806 183.312 244.366 182.352C244.926 181.392 245.686 180.64 246.646 180.096C247.606 179.552 248.702 179.28 249.934 179.28C251.182 179.28 252.286 179.552 253.246 180.096C254.222 180.64 254.982 181.392 255.526 182.352C256.086 183.312 256.366 184.424 256.366 185.688C256.366 186.936 256.086 188.048 255.526 189.024C254.982 189.984 254.222 190.744 253.246 191.304C252.27 191.848 251.166 192.12 249.934 192.12ZM249.934 190.608C250.846 190.608 251.654 190.408 252.358 190.008C253.062 189.592 253.614 189.016 254.014 188.28C254.43 187.528 254.638 186.664 254.638 185.688C254.638 184.696 254.43 183.832 254.014 183.096C253.614 182.36 253.062 181.792 252.358 181.392C251.654 180.976 250.854 180.768 249.958 180.768C249.062 180.768 248.262 180.976 247.558 181.392C246.854 181.792 246.294 182.36 245.878 183.096C245.462 183.832 245.254 184.696 245.254 185.688C245.254 186.664 245.462 187.528 245.878 188.28C246.294 189.016 246.854 189.592 247.558 190.008C248.262 190.408 249.054 190.608 249.934 190.608ZM264.861 192.12C263.661 192.12 262.581 191.848 261.621 191.304C260.677 190.76 259.933 190.008 259.389 189.048C258.845 188.072 258.573 186.952 258.573 185.688C258.573 184.408 258.845 183.288 259.389 182.328C259.933 181.368 260.677 180.624 261.621 180.096C262.581 179.552 263.661 179.28 264.861 179.28C265.965 179.28 266.949 179.528 267.813 180.024C268.693 180.52 269.389 181.248 269.901 182.208C270.429 183.152 270.693 184.312 270.693 185.688C270.693 187.048 270.437 188.208 269.925 189.168C269.413 190.128 268.717 190.864 267.837 191.376C266.973 191.872 265.981 192.12 264.861 192.12ZM264.981 190.608C265.877 190.608 266.677 190.408 267.381 190.008C268.101 189.592 268.661 189.016 269.061 188.28C269.477 187.528 269.685 186.664 269.685 185.688C269.685 184.696 269.477 183.832 269.061 183.096C268.661 182.36 268.101 181.792 267.381 181.392C266.677 180.976 265.877 180.768 264.981 180.768C264.101 180.768 263.309 180.976 262.605 181.392C261.901 181.792 261.341 182.36 260.925 183.096C260.509 183.832 260.301 184.696 260.301 185.688C260.301 186.664 260.509 187.528 260.925 188.28C261.341 189.016 261.901 189.592 262.605 190.008C263.309 190.408 264.101 190.608 264.981 190.608ZM269.733 192V188.208L269.901 185.664L269.661 183.12V174.192H271.365V192H269.733ZM281.318 192.12C280.246 192.12 279.31 191.92 278.51 191.52C277.71 191.12 277.086 190.52 276.638 189.72C276.206 188.92 275.99 187.92 275.99 186.72V179.4H277.694V186.528C277.694 187.872 278.022 188.888 278.678 189.576C279.35 190.248 280.286 190.584 281.486 190.584C282.366 190.584 283.126 190.408 283.766 190.056C284.422 189.688 284.918 189.16 285.254 188.472C285.606 187.784 285.782 186.96 285.782 186V179.4H287.486V192H285.854V188.544L286.118 189.168C285.718 190.096 285.094 190.824 284.246 191.352C283.414 191.864 282.438 192.12 281.318 192.12ZM297.467 192.12C296.219 192.12 295.099 191.848 294.107 191.304C293.131 190.744 292.363 189.984 291.803 189.024C291.243 188.048 290.963 186.936 290.963 185.688C290.963 184.424 291.243 183.312 291.803 182.352C292.363 181.392 293.131 180.64 294.107 180.096C295.099 179.552 296.219 179.28 297.467 179.28C298.539 179.28 299.507 179.488 300.371 179.904C301.235 180.32 301.915 180.944 302.411 181.776L301.139 182.64C300.707 182 300.171 181.528 299.531 181.224C298.891 180.92 298.195 180.768 297.443 180.768C296.547 180.768 295.739 180.976 295.019 181.392C294.299 181.792 293.731 182.36 293.315 183.096C292.899 183.832 292.691 184.696 292.691 185.688C292.691 186.68 292.899 187.544 293.315 188.28C293.731 189.016 294.299 189.592 295.019 190.008C295.739 190.408 296.547 190.608 297.443 190.608C298.195 190.608 298.891 190.456 299.531 190.152C300.171 189.848 300.707 189.384 301.139 188.76L302.411 189.624C301.915 190.44 301.235 191.064 300.371 191.496C299.507 191.912 298.539 192.12 297.467 192.12ZM309.883 192.12C308.699 192.12 307.787 191.8 307.147 191.16C306.507 190.52 306.187 189.616 306.187 188.448V176.616H307.891V188.352C307.891 189.088 308.075 189.656 308.443 190.056C308.827 190.456 309.371 190.656 310.075 190.656C310.827 190.656 311.451 190.44 311.947 190.008L312.547 191.232C312.211 191.536 311.803 191.76 311.323 191.904C310.859 192.048 310.379 192.12 309.883 192.12ZM303.931 180.816V179.4H311.731V180.816H303.931ZM315.649 192V179.4H317.353V192H315.649ZM316.513 176.616C316.161 176.616 315.865 176.496 315.625 176.256C315.385 176.016 315.265 175.728 315.265 175.392C315.265 175.056 315.385 174.776 315.625 174.552C315.865 174.312 316.161 174.192 316.513 174.192C316.865 174.192 317.161 174.304 317.401 174.528C317.641 174.752 317.761 175.032 317.761 175.368C317.761 175.72 317.641 176.016 317.401 176.256C317.177 176.496 316.881 176.616 316.513 176.616ZM327.231 192.12C326.015 192.12 324.919 191.848 323.943 191.304C322.983 190.744 322.223 189.984 321.663 189.024C321.103 188.048 320.823 186.936 320.823 185.688C320.823 184.424 321.103 183.312 321.663 182.352C322.223 181.392 322.983 180.64 323.943 180.096C324.903 179.552 325.999 179.28 327.231 179.28C328.479 179.28 329.583 179.552 330.543 180.096C331.519 180.64 332.279 181.392 332.823 182.352C333.383 183.312 333.663 184.424 333.663 185.688C333.663 186.936 333.383 188.048 332.823 189.024C332.279 189.984 331.519 190.744 330.543 191.304C329.567 191.848 328.463 192.12 327.231 192.12ZM327.231 190.608C328.143 190.608 328.951 190.408 329.655 190.008C330.359 189.592 330.911 189.016 331.311 188.28C331.727 187.528 331.935 186.664 331.935 185.688C331.935 184.696 331.727 183.832 331.311 183.096C330.911 182.36 330.359 181.792 329.655 181.392C328.951 180.976 328.151 180.768 327.255 180.768C326.359 180.768 325.559 180.976 324.855 181.392C324.151 181.792 323.591 182.36 323.175 183.096C322.759 183.832 322.551 184.696 322.551 185.688C322.551 186.664 322.759 187.528 323.175 188.28C323.591 189.016 324.151 189.592 324.855 190.008C325.559 190.408 326.351 190.608 327.231 190.608ZM343.574 179.28C344.598 179.28 345.494 179.48 346.262 179.88C347.046 180.264 347.654 180.856 348.086 181.656C348.534 182.456 348.758 183.464 348.758 184.68V192H347.054V184.848C347.054 183.52 346.718 182.52 346.046 181.848C345.39 181.16 344.462 180.816 343.262 180.816C342.366 180.816 341.582 181 340.91 181.368C340.254 181.72 339.742 182.24 339.374 182.928C339.022 183.6 338.846 184.416 338.846 185.376V192H337.142V179.4H338.774V182.856L338.51 182.208C338.91 181.296 339.55 180.584 340.43 180.072C341.31 179.544 342.358 179.28 343.574 179.28ZM363.626 192.12C362.442 192.12 361.53 191.8 360.89 191.16C360.25 190.52 359.93 189.616 359.93 188.448V176.616H361.634V188.352C361.634 189.088 361.818 189.656 362.186 190.056C362.57 190.456 363.114 190.656 363.818 190.656C364.57 190.656 365.194 190.44 365.69 190.008L366.29 191.232C365.954 191.536 365.546 191.76 365.066 191.904C364.602 192.048 364.122 192.12 363.626 192.12ZM357.674 180.816V179.4H365.474V180.816H357.674ZM374.082 192.12C372.866 192.12 371.77 191.848 370.794 191.304C369.834 190.744 369.074 189.984 368.514 189.024C367.954 188.048 367.674 186.936 367.674 185.688C367.674 184.424 367.954 183.312 368.514 182.352C369.074 181.392 369.834 180.64 370.794 180.096C371.754 179.552 372.85 179.28 374.082 179.28C375.33 179.28 376.434 179.552 377.394 180.096C378.37 180.64 379.13 181.392 379.674 182.352C380.234 183.312 380.514 184.424 380.514 185.688C380.514 186.936 380.234 188.048 379.674 189.024C379.13 189.984 378.37 190.744 377.394 191.304C376.418 191.848 375.314 192.12 374.082 192.12ZM374.082 190.608C374.994 190.608 375.802 190.408 376.506 190.008C377.21 189.592 377.762 189.016 378.162 188.28C378.578 187.528 378.786 186.664 378.786 185.688C378.786 184.696 378.578 183.832 378.162 183.096C377.762 182.36 377.21 181.792 376.506 181.392C375.802 180.976 375.002 180.768 374.106 180.768C373.21 180.768 372.41 180.976 371.706 181.392C371.002 181.792 370.442 182.36 370.026 183.096C369.61 183.832 369.402 184.696 369.402 185.688C369.402 186.664 369.61 187.528 370.026 188.28C370.442 189.016 371.002 189.592 371.706 190.008C372.41 190.408 373.202 190.608 374.082 190.608ZM390.634 192V175.2H397.474C399.266 175.2 400.834 175.56 402.178 176.28C403.538 176.984 404.594 177.968 405.346 179.232C406.098 180.496 406.474 181.952 406.474 183.6C406.474 185.248 406.098 186.704 405.346 187.968C404.594 189.232 403.538 190.224 402.178 190.944C400.834 191.648 399.266 192 397.474 192H390.634ZM392.41 190.464H397.378C398.866 190.464 400.154 190.176 401.242 189.6C402.346 189.008 403.202 188.2 403.81 187.176C404.418 186.136 404.722 184.944 404.722 183.6C404.722 182.24 404.418 181.048 403.81 180.024C403.202 179 402.346 178.2 401.242 177.624C400.154 177.032 398.866 176.736 397.378 176.736H392.41V190.464ZM415.311 192.12C414.239 192.12 413.303 191.92 412.503 191.52C411.703 191.12 411.079 190.52 410.631 189.72C410.199 188.92 409.983 187.92 409.983 186.72V179.4H411.687V186.528C411.687 187.872 412.015 188.888 412.671 189.576C413.343 190.248 414.279 190.584 415.479 190.584C416.359 190.584 417.119 190.408 417.759 190.056C418.415 189.688 418.911 189.16 419.247 188.472C419.599 187.784 419.775 186.96 419.775 186V179.4H421.479V192H419.847V188.544L420.111 189.168C419.711 190.096 419.087 190.824 418.239 191.352C417.407 191.864 416.431 192.12 415.311 192.12ZM431.46 192.12C430.212 192.12 429.092 191.848 428.1 191.304C427.124 190.744 426.356 189.984 425.796 189.024C425.236 188.048 424.956 186.936 424.956 185.688C424.956 184.424 425.236 183.312 425.796 182.352C426.356 181.392 427.124 180.64 428.1 180.096C429.092 179.552 430.212 179.28 431.46 179.28C432.532 179.28 433.5 179.488 434.364 179.904C435.228 180.32 435.908 180.944 436.404 181.776L435.132 182.64C434.7 182 434.164 181.528 433.524 181.224C432.884 180.92 432.188 180.768 431.436 180.768C430.54 180.768 429.732 180.976 429.012 181.392C428.292 181.792 427.724 182.36 427.308 183.096C426.892 183.832 426.684 184.696 426.684 185.688C426.684 186.68 426.892 187.544 427.308 188.28C427.724 189.016 428.292 189.592 429.012 190.008C429.732 190.408 430.54 190.608 431.436 190.608C432.188 190.608 432.884 190.456 433.524 190.152C434.164 189.848 434.7 189.384 435.132 188.76L436.404 189.624C435.908 190.44 435.228 191.064 434.364 191.496C433.5 191.912 432.532 192.12 431.46 192.12ZM440.908 188.736L440.956 186.552L448.804 179.4H450.892L445.348 184.704L444.388 185.52L440.908 188.736ZM439.564 192V174.192H441.268V192H439.564ZM449.332 192L444.076 185.448L445.18 184.128L451.42 192H449.332ZM454.338 192V175.2H461.178C462.97 175.2 464.538 175.56 465.882 176.28C467.242 176.984 468.298 177.968 469.05 179.232C469.802 180.496 470.178 181.952 470.178 183.6C470.178 185.248 469.802 186.704 469.05 187.968C468.298 189.232 467.242 190.224 465.882 190.944C464.538 191.648 462.97 192 461.178 192H454.338ZM456.114 190.464H461.082C462.57 190.464 463.858 190.176 464.946 189.6C466.05 189.008 466.906 188.2 467.514 187.176C468.122 186.136 468.426 184.944 468.426 183.6C468.426 182.24 468.122 181.048 467.514 180.024C466.906 179 466.05 178.2 464.946 177.624C463.858 177.032 462.57 176.736 461.082 176.736H456.114V190.464ZM474.166 192V175.2H481.414C483.286 175.2 484.734 175.576 485.758 176.328C486.798 177.08 487.318 178.144 487.318 179.52C487.318 180.432 487.102 181.2 486.67 181.824C486.254 182.448 485.678 182.92 484.942 183.24C484.222 183.56 483.43 183.72 482.566 183.72L482.974 183.144C484.046 183.144 484.966 183.312 485.734 183.648C486.518 183.968 487.126 184.456 487.558 185.112C487.99 185.752 488.206 186.552 488.206 187.512C488.206 188.936 487.678 190.04 486.622 190.824C485.582 191.608 484.006 192 481.894 192H474.166ZM475.942 190.536H481.87C483.342 190.536 484.47 190.288 485.254 189.792C486.038 189.28 486.43 188.472 486.43 187.368C486.43 186.28 486.038 185.488 485.254 184.992C484.47 184.48 483.342 184.224 481.87 184.224H475.75V182.76H481.294C482.638 182.76 483.678 182.504 484.414 181.992C485.166 181.48 485.542 180.72 485.542 179.712C485.542 178.688 485.166 177.928 484.414 177.432C483.678 176.92 482.638 176.664 481.294 176.664H475.942V190.536ZM490.867 195.504L491.923 191.064L492.115 192.096C491.747 192.096 491.435 191.976 491.179 191.736C490.939 191.496 490.819 191.184 490.819 190.8C490.819 190.416 490.939 190.104 491.179 189.864C491.435 189.624 491.739 189.504 492.091 189.504C492.459 189.504 492.755 189.632 492.979 189.888C493.219 190.144 493.339 190.448 493.339 190.8C493.339 190.928 493.331 191.056 493.315 191.184C493.299 191.312 493.267 191.456 493.219 191.616C493.171 191.776 493.107 191.968 493.027 192.192L492.019 195.504H490.867ZM507.251 192.12C506.067 192.12 505.155 191.8 504.515 191.16C503.875 190.52 503.555 189.616 503.555 188.448V176.616H505.259V188.352C505.259 189.088 505.443 189.656 505.811 190.056C506.195 190.456 506.739 190.656 507.443 190.656C508.195 190.656 508.819 190.44 509.315 190.008L509.915 191.232C509.579 191.536 509.171 191.76 508.691 191.904C508.227 192.048 507.747 192.12 507.251 192.12ZM501.299 180.816V179.4H509.099V180.816H501.299ZM519.449 179.28C520.473 179.28 521.369 179.48 522.137 179.88C522.921 180.264 523.529 180.856 523.961 181.656C524.409 182.456 524.633 183.464 524.633 184.68V192H522.929V184.848C522.929 183.52 522.593 182.52 521.921 181.848C521.265 181.16 520.337 180.816 519.137 180.816C518.241 180.816 517.457 181 516.785 181.368C516.129 181.72 515.617 182.24 515.249 182.928C514.897 183.6 514.721 184.416 514.721 185.376V192H513.017V174.192H514.721V182.856L514.385 182.208C514.785 181.296 515.425 180.584 516.305 180.072C517.185 179.544 518.233 179.28 519.449 179.28ZM534.587 192.12C533.275 192.12 532.123 191.848 531.131 191.304C530.139 190.744 529.363 189.984 528.803 189.024C528.243 188.048 527.963 186.936 527.963 185.688C527.963 184.44 528.227 183.336 528.755 182.376C529.299 181.416 530.035 180.664 530.963 180.12C531.907 179.56 532.963 179.28 534.131 179.28C535.315 179.28 536.363 179.552 537.275 180.096C538.203 180.624 538.931 181.376 539.459 182.352C539.987 183.312 540.251 184.424 540.251 185.688C540.251 185.768 540.243 185.856 540.227 185.952C540.227 186.032 540.227 186.12 540.227 186.216H529.259V184.944H539.315L538.643 185.448C538.643 184.536 538.443 183.728 538.043 183.024C537.659 182.304 537.131 181.744 536.459 181.344C535.787 180.944 535.011 180.744 534.131 180.744C533.267 180.744 532.491 180.944 531.803 181.344C531.115 181.744 530.579 182.304 530.195 183.024C529.811 183.744 529.619 184.568 529.619 185.496V185.76C529.619 186.72 529.827 187.568 530.243 188.304C530.675 189.024 531.267 189.592 532.019 190.008C532.787 190.408 533.659 190.608 534.635 190.608C535.403 190.608 536.115 190.472 536.771 190.2C537.443 189.928 538.019 189.512 538.499 188.952L539.459 190.056C538.899 190.728 538.195 191.24 537.347 191.592C536.515 191.944 535.595 192.12 534.587 192.12ZM549.401 181.536L549.281 175.2H550.793L550.673 181.536H549.401ZM553.505 181.536L553.385 175.2H554.897L554.777 181.536H553.505ZM563.946 192.144C562.698 192.144 561.498 191.944 560.346 191.544C559.21 191.128 558.33 190.6 557.706 189.96L558.402 188.592C558.994 189.168 559.786 189.656 560.778 190.056C561.786 190.44 562.842 190.632 563.946 190.632C565.002 190.632 565.858 190.504 566.514 190.248C567.186 189.976 567.674 189.616 567.978 189.168C568.298 188.72 568.458 188.224 568.458 187.68C568.458 187.024 568.266 186.496 567.882 186.096C567.514 185.696 567.026 185.384 566.418 185.16C565.81 184.92 565.138 184.712 564.402 184.536C563.666 184.36 562.93 184.176 562.194 183.984C561.458 183.776 560.778 183.504 560.154 183.168C559.546 182.832 559.05 182.392 558.666 181.848C558.298 181.288 558.114 180.56 558.114 179.664C558.114 178.832 558.33 178.072 558.762 177.384C559.21 176.68 559.89 176.12 560.802 175.704C561.714 175.272 562.882 175.056 564.306 175.056C565.25 175.056 566.186 175.192 567.114 175.464C568.042 175.72 568.842 176.08 569.514 176.544L568.914 177.96C568.194 177.48 567.426 177.128 566.61 176.904C565.81 176.68 565.034 176.568 564.282 176.568C563.274 176.568 562.442 176.704 561.786 176.976C561.13 177.248 560.642 177.616 560.322 178.08C560.018 178.528 559.866 179.04 559.866 179.616C559.866 180.272 560.05 180.8 560.418 181.2C560.802 181.6 561.298 181.912 561.906 182.136C562.53 182.36 563.21 182.56 563.946 182.736C564.682 182.912 565.41 183.104 566.13 183.312C566.866 183.52 567.538 183.792 568.146 184.128C568.77 184.448 569.266 184.88 569.634 185.424C570.018 185.968 570.21 186.68 570.21 187.56C570.21 188.376 569.986 189.136 569.538 189.84C569.09 190.528 568.402 191.088 567.474 191.52C566.562 191.936 565.386 192.144 563.946 192.144ZM581.424 192.144C580.16 192.144 578.984 191.936 577.896 191.52C576.824 191.088 575.888 190.488 575.088 189.72C574.304 188.936 573.688 188.032 573.24 187.008C572.808 185.968 572.592 184.832 572.592 183.6C572.592 182.368 572.808 181.24 573.24 180.216C573.688 179.176 574.304 178.272 575.088 177.504C575.888 176.72 576.824 176.12 577.896 175.704C578.968 175.272 580.144 175.056 581.424 175.056C582.688 175.056 583.856 175.272 584.928 175.704C586 176.12 586.928 176.712 587.712 177.48C588.512 178.248 589.128 179.152 589.56 180.192C590.008 181.232 590.232 182.368 590.232 183.6C590.232 184.832 590.008 185.968 589.56 187.008C589.128 188.048 588.512 188.952 587.712 189.72C586.928 190.488 586 191.088 584.928 191.52C583.856 191.936 582.688 192.144 581.424 192.144ZM586.92 195.336C586.408 195.336 585.912 195.272 585.432 195.144C584.952 195.016 584.464 194.808 583.968 194.52C583.488 194.248 582.992 193.888 582.48 193.44C581.968 192.992 581.408 192.448 580.8 191.808L582.744 191.328C583.24 191.92 583.72 192.408 584.184 192.792C584.664 193.176 585.128 193.456 585.576 193.632C586.04 193.824 586.496 193.92 586.944 193.92C588.192 193.92 589.256 193.408 590.136 192.384L591 193.416C589.944 194.696 588.584 195.336 586.92 195.336ZM581.424 190.56C582.432 190.56 583.36 190.392 584.208 190.056C585.072 189.704 585.816 189.208 586.44 188.568C587.08 187.928 587.576 187.192 587.928 186.36C588.28 185.512 588.456 184.592 588.456 183.6C588.456 182.592 588.28 181.672 587.928 180.84C587.576 179.992 587.08 179.256 586.44 178.632C585.816 177.992 585.072 177.504 584.208 177.168C583.36 176.816 582.432 176.64 581.424 176.64C580.416 176.64 579.48 176.816 578.616 177.168C577.752 177.504 577 177.992 576.36 178.632C575.736 179.256 575.24 179.992 574.872 180.84C574.52 181.672 574.344 182.592 574.344 183.6C574.344 184.592 574.52 185.512 574.872 186.36C575.24 187.192 575.736 187.928 576.36 188.568C577 189.208 577.752 189.704 578.616 190.056C579.48 190.392 580.416 190.56 581.424 190.56ZM594.213 192V175.2H595.989V190.464H605.397V192H594.213ZM607.985 192V179.4H609.689V192H607.985ZM608.849 176.616C608.497 176.616 608.201 176.496 607.961 176.256C607.721 176.016 607.601 175.728 607.601 175.392C607.601 175.056 607.721 174.776 607.961 174.552C608.201 174.312 608.497 174.192 608.849 174.192C609.201 174.192 609.497 174.304 609.737 174.528C609.977 174.752 610.097 175.032 610.097 175.368C610.097 175.72 609.977 176.016 609.737 176.256C609.513 176.496 609.217 176.616 608.849 176.616ZM618.415 192.12C617.231 192.12 616.319 191.8 615.679 191.16C615.039 190.52 614.719 189.616 614.719 188.448V176.616H616.423V188.352C616.423 189.088 616.607 189.656 616.975 190.056C617.359 190.456 617.903 190.656 618.607 190.656C619.359 190.656 619.983 190.44 620.479 190.008L621.079 191.232C620.743 191.536 620.335 191.76 619.855 191.904C619.391 192.048 618.911 192.12 618.415 192.12ZM612.463 180.816V179.4H620.263V180.816H612.463ZM629.087 192.12C627.775 192.12 626.623 191.848 625.631 191.304C624.639 190.744 623.863 189.984 623.303 189.024C622.743 188.048 622.463 186.936 622.463 185.688C622.463 184.44 622.727 183.336 623.255 182.376C623.799 181.416 624.535 180.664 625.463 180.12C626.407 179.56 627.463 179.28 628.631 179.28C629.815 179.28 630.863 179.552 631.775 180.096C632.703 180.624 633.431 181.376 633.959 182.352C634.487 183.312 634.751 184.424 634.751 185.688C634.751 185.768 634.743 185.856 634.727 185.952C634.727 186.032 634.727 186.12 634.727 186.216H623.759V184.944H633.815L633.143 185.448C633.143 184.536 632.943 183.728 632.543 183.024C632.159 182.304 631.631 181.744 630.959 181.344C630.287 180.944 629.511 180.744 628.631 180.744C627.767 180.744 626.991 180.944 626.303 181.344C625.615 181.744 625.079 182.304 624.695 183.024C624.311 183.744 624.119 184.568 624.119 185.496V185.76C624.119 186.72 624.327 187.568 624.743 188.304C625.175 189.024 625.767 189.592 626.519 190.008C627.287 190.408 628.159 190.608 629.135 190.608C629.903 190.608 630.615 190.472 631.271 190.2C631.943 189.928 632.519 189.512 632.999 188.952L633.959 190.056C633.399 190.728 632.695 191.24 631.847 191.592C631.015 191.944 630.095 192.12 629.087 192.12ZM644.789 192V177.816C644.789 176.696 645.117 175.792 645.773 175.104C646.429 174.416 647.373 174.072 648.605 174.072C649.085 174.072 649.549 174.136 649.997 174.264C650.445 174.392 650.821 174.592 651.125 174.864L650.549 176.136C650.309 175.928 650.029 175.776 649.709 175.68C649.389 175.568 649.045 175.512 648.677 175.512C647.957 175.512 647.405 175.712 647.021 176.112C646.637 176.512 646.445 177.104 646.445 177.888V179.808L646.493 180.6V192H644.789ZM642.533 180.816V179.4H650.333V180.816H642.533ZM657.559 192.12C656.343 192.12 655.247 191.848 654.271 191.304C653.311 190.744 652.551 189.984 651.991 189.024C651.431 188.048 651.151 186.936 651.151 185.688C651.151 184.424 651.431 183.312 651.991 182.352C652.551 181.392 653.311 180.64 654.271 180.096C655.231 179.552 656.327 179.28 657.559 179.28C658.807 179.28 659.911 179.552 660.871 180.096C661.847 180.64 662.607 181.392 663.151 182.352C663.711 183.312 663.991 184.424 663.991 185.688C663.991 186.936 663.711 188.048 663.151 189.024C662.607 189.984 661.847 190.744 660.871 191.304C659.895 191.848 658.791 192.12 657.559 192.12ZM657.559 190.608C658.471 190.608 659.279 190.408 659.983 190.008C660.687 189.592 661.239 189.016 661.639 188.28C662.055 187.528 662.263 186.664 662.263 185.688C662.263 184.696 662.055 183.832 661.639 183.096C661.239 182.36 660.687 181.792 659.983 181.392C659.279 180.976 658.479 180.768 657.583 180.768C656.687 180.768 655.887 180.976 655.183 181.392C654.479 181.792 653.919 182.36 653.503 183.096C653.087 183.832 652.879 184.696 652.879 185.688C652.879 186.664 653.087 187.528 653.503 188.28C653.919 189.016 654.479 189.592 655.183 190.008C655.887 190.408 656.679 190.608 657.559 190.608ZM667.47 192V179.4H669.102V182.832L668.934 182.232C669.286 181.272 669.878 180.544 670.71 180.048C671.542 179.536 672.574 179.28 673.806 179.28V180.936C673.742 180.936 673.678 180.936 673.614 180.936C673.55 180.92 673.486 180.912 673.422 180.912C672.094 180.912 671.054 181.32 670.302 182.136C669.55 182.936 669.174 184.08 669.174 185.568V192H667.47ZM691.28 192V189.216L691.208 188.76V184.104C691.208 183.032 690.904 182.208 690.296 181.632C689.704 181.056 688.816 180.768 687.632 180.768C686.816 180.768 686.04 180.904 685.304 181.176C684.568 181.448 683.944 181.808 683.432 182.256L682.664 180.984C683.304 180.44 684.072 180.024 684.968 179.736C685.864 179.432 686.808 179.28 687.8 179.28C689.432 179.28 690.688 179.688 691.568 180.504C692.464 181.304 692.912 182.528 692.912 184.176V192H691.28ZM686.936 192.12C685.992 192.12 685.168 191.968 684.464 191.664C683.776 191.344 683.248 190.912 682.88 190.368C682.512 189.808 682.328 189.168 682.328 188.448C682.328 187.792 682.48 187.2 682.784 186.672C683.104 186.128 683.616 185.696 684.32 185.376C685.04 185.04 686 184.872 687.2 184.872H691.544V186.144H687.248C686.032 186.144 685.184 186.36 684.704 186.792C684.24 187.224 684.008 187.76 684.008 188.4C684.008 189.12 684.288 189.696 684.848 190.128C685.408 190.56 686.192 190.776 687.2 190.776C688.16 190.776 688.984 190.56 689.672 190.128C690.376 189.68 690.888 189.04 691.208 188.208L691.592 189.384C691.272 190.216 690.712 190.88 689.912 191.376C689.128 191.872 688.136 192.12 686.936 192.12ZM703.972 179.28C704.996 179.28 705.892 179.48 706.66 179.88C707.444 180.264 708.052 180.856 708.484 181.656C708.932 182.456 709.156 183.464 709.156 184.68V192H707.452V184.848C707.452 183.52 707.116 182.52 706.444 181.848C705.788 181.16 704.86 180.816 703.66 180.816C702.764 180.816 701.98 181 701.308 181.368C700.652 181.72 700.14 182.24 699.772 182.928C699.42 183.6 699.244 184.416 699.244 185.376V192H697.54V179.4H699.172V182.856L698.908 182.208C699.308 181.296 699.948 180.584 700.828 180.072C701.708 179.544 702.756 179.28 703.972 179.28ZM721.655 192V189.216L721.583 188.76V184.104C721.583 183.032 721.279 182.208 720.671 181.632C720.079 181.056 719.191 180.768 718.007 180.768C717.191 180.768 716.415 180.904 715.679 181.176C714.943 181.448 714.319 181.808 713.807 182.256L713.039 180.984C713.679 180.44 714.447 180.024 715.343 179.736C716.239 179.432 717.183 179.28 718.175 179.28C719.807 179.28 721.063 179.688 721.943 180.504C722.839 181.304 723.287 182.528 723.287 184.176V192H721.655ZM717.311 192.12C716.367 192.12 715.543 191.968 714.839 191.664C714.151 191.344 713.623 190.912 713.255 190.368C712.887 189.808 712.703 189.168 712.703 188.448C712.703 187.792 712.855 187.2 713.159 186.672C713.479 186.128 713.991 185.696 714.695 185.376C715.415 185.04 716.375 184.872 717.575 184.872H721.919V186.144H717.623C716.407 186.144 715.559 186.36 715.079 186.792C714.615 187.224 714.383 187.76 714.383 188.4C714.383 189.12 714.663 189.696 715.223 190.128C715.783 190.56 716.567 190.776 717.575 190.776C718.535 190.776 719.359 190.56 720.047 190.128C720.751 189.68 721.263 189.04 721.583 188.208L721.967 189.384C721.647 190.216 721.087 190.88 720.287 191.376C719.503 191.872 718.511 192.12 717.311 192.12ZM727.915 192V174.192H729.619V192H727.915ZM734.456 196.776C733.864 196.776 733.296 196.68 732.752 196.488C732.224 196.296 731.768 196.008 731.384 195.624L732.176 194.352C732.496 194.656 732.84 194.888 733.208 195.048C733.592 195.224 734.016 195.312 734.48 195.312C735.04 195.312 735.52 195.152 735.92 194.832C736.336 194.528 736.728 193.984 737.096 193.2L737.912 191.352L738.104 191.088L743.288 179.4H744.968L738.656 193.512C738.304 194.328 737.912 194.976 737.48 195.456C737.064 195.936 736.608 196.272 736.112 196.464C735.616 196.672 735.064 196.776 734.456 196.776ZM737.816 192.36L732.008 179.4H733.784L738.92 190.968L737.816 192.36ZM751.704 192.12C750.52 192.12 749.608 191.8 748.968 191.16C748.328 190.52 748.008 189.616 748.008 188.448V176.616H749.712V188.352C749.712 189.088 749.896 189.656 750.264 190.056C750.648 190.456 751.192 190.656 751.896 190.656C752.648 190.656 753.272 190.44 753.768 190.008L754.368 191.232C754.032 191.536 753.624 191.76 753.144 191.904C752.68 192.048 752.2 192.12 751.704 192.12ZM745.752 180.816V179.4H753.552V180.816H745.752ZM757.47 192V179.4H759.174V192H757.47ZM758.334 176.616C757.982 176.616 757.686 176.496 757.446 176.256C757.206 176.016 757.086 175.728 757.086 175.392C757.086 175.056 757.206 174.776 757.446 174.552C757.686 174.312 757.982 174.192 758.334 174.192C758.686 174.192 758.982 174.304 759.222 174.528C759.462 174.752 759.582 175.032 759.582 175.368C759.582 175.72 759.462 176.016 759.222 176.256C758.998 176.496 758.702 176.616 758.334 176.616ZM769.147 192.12C767.899 192.12 766.779 191.848 765.787 191.304C764.811 190.744 764.043 189.984 763.483 189.024C762.923 188.048 762.643 186.936 762.643 185.688C762.643 184.424 762.923 183.312 763.483 182.352C764.043 181.392 764.811 180.64 765.787 180.096C766.779 179.552 767.899 179.28 769.147 179.28C770.219 179.28 771.187 179.488 772.051 179.904C772.915 180.32 773.595 180.944 774.091 181.776L772.819 182.64C772.387 182 771.851 181.528 771.211 181.224C770.571 180.92 769.875 180.768 769.123 180.768C768.227 180.768 767.419 180.976 766.699 181.392C765.979 181.792 765.411 182.36 764.995 183.096C764.579 183.832 764.371 184.696 764.371 185.688C764.371 186.68 764.579 187.544 764.995 188.28C765.411 189.016 765.979 189.592 766.699 190.008C767.419 190.408 768.227 190.608 769.123 190.608C769.875 190.608 770.571 190.456 771.211 190.152C771.851 189.848 772.387 189.384 772.819 188.76L774.091 189.624C773.595 190.44 772.915 191.064 772.051 191.496C771.187 191.912 770.219 192.12 769.147 192.12ZM780.823 192.12C779.783 192.12 778.799 191.976 777.871 191.688C776.943 191.384 776.215 191.008 775.687 190.56L776.455 189.216C776.967 189.6 777.623 189.936 778.423 190.224C779.223 190.496 780.063 190.632 780.943 190.632C782.143 190.632 783.007 190.448 783.535 190.08C784.063 189.696 784.327 189.192 784.327 188.568C784.327 188.104 784.175 187.744 783.871 187.488C783.583 187.216 783.199 187.016 782.719 186.888C782.239 186.744 781.703 186.624 781.111 186.528C780.519 186.432 779.927 186.32 779.335 186.192C778.759 186.064 778.231 185.88 777.751 185.64C777.271 185.384 776.879 185.04 776.575 184.608C776.287 184.176 776.143 183.6 776.143 182.88C776.143 182.192 776.335 181.576 776.719 181.032C777.103 180.488 777.663 180.064 778.399 179.76C779.151 179.44 780.063 179.28 781.135 179.28C781.951 179.28 782.767 179.392 783.583 179.616C784.399 179.824 785.071 180.104 785.599 180.456L784.855 181.824C784.295 181.44 783.695 181.168 783.055 181.008C782.415 180.832 781.775 180.744 781.135 180.744C779.999 180.744 779.159 180.944 778.615 181.344C778.087 181.728 777.823 182.224 777.823 182.832C777.823 183.312 777.967 183.688 778.255 183.96C778.559 184.232 778.951 184.448 779.431 184.608C779.927 184.752 780.463 184.872 781.039 184.968C781.631 185.064 782.215 185.184 782.791 185.328C783.383 185.456 783.919 185.64 784.399 185.88C784.895 186.104 785.287 186.432 785.575 186.864C785.879 187.28 786.031 187.832 786.031 188.52C786.031 189.256 785.823 189.896 785.407 190.44C785.007 190.968 784.415 191.384 783.631 191.688C782.863 191.976 781.927 192.12 780.823 192.12ZM788.557 181.536L788.437 175.2H789.949L789.829 181.536H788.557ZM792.661 181.536L792.541 175.2H794.053L793.933 181.536H792.661Z" fill="white"/>
<path d="M1258 157L1270 169L1258 181" stroke="#BC78DD" stroke-width="4" stroke-linecap="round" stroke-linejoin="round"/>
</svg>
