<svg width="204" height="30" viewBox="0 0 204 30" fill="none" xmlns="http://www.w3.org/2000/svg">
<path d="M52.55 24.25C51.1833 24.25 49.925 24.025 48.775 23.575C47.625 23.125 46.625 22.5 45.775 21.7C44.925 20.8833 44.2667 19.9333 43.8 18.85C43.3333 17.75 43.1 16.55 43.1 15.25C43.1 13.95 43.3333 12.7583 43.8 11.675C44.2667 10.575 44.925 9.625 45.775 8.825C46.625 8.00833 47.625 7.375 48.775 6.925C49.925 6.475 51.175 6.25 52.525 6.25C53.8917 6.25 55.1417 6.475 56.275 6.925C57.425 7.375 58.425 8.00833 59.275 8.825C60.125 9.625 60.7833 10.575 61.25 11.675C61.7167 12.7583 61.95 13.95 61.95 15.25C61.95 16.55 61.7167 17.75 61.25 18.85C60.7833 19.95 60.125 20.9 59.275 21.7C58.425 22.5 57.425 23.125 56.275 23.575C55.1417 24.025 53.9 24.25 52.55 24.25ZM52.525 21.4C53.4083 21.4 54.225 21.25 54.975 20.95C55.725 20.65 56.375 20.225 56.925 19.675C57.475 19.1083 57.9 18.4583 58.2 17.725C58.5167 16.975 58.675 16.15 58.675 15.25C58.675 14.35 58.5167 13.5333 58.2 12.8C57.9 12.05 57.475 11.4 56.925 10.85C56.375 10.2833 55.725 9.85 54.975 9.55C54.225 9.25 53.4083 9.1 52.525 9.1C51.6417 9.1 50.825 9.25 50.075 9.55C49.3417 9.85 48.6917 10.2833 48.125 10.85C47.575 11.4 47.1417 12.05 46.825 12.8C46.525 13.5333 46.375 14.35 46.375 15.25C46.375 16.1333 46.525 16.95 46.825 17.7C47.1417 18.45 47.575 19.1083 48.125 19.675C48.675 20.225 49.325 20.65 50.075 20.95C50.825 21.25 51.6417 21.4 52.525 21.4ZM65.0949 24V5.45H68.2199V24H65.0949ZM77.9715 24.175C76.6882 24.175 75.5298 23.8917 74.4965 23.325C73.4798 22.7417 72.6798 21.9417 72.0965 20.925C71.5132 19.9083 71.2215 18.7083 71.2215 17.325C71.2215 15.9417 71.5132 14.7417 72.0965 13.725C72.6798 12.7083 73.4798 11.9167 74.4965 11.35C75.5298 10.7833 76.6882 10.5 77.9715 10.5C79.0882 10.5 80.0882 10.75 80.9715 11.25C81.8548 11.7333 82.5548 12.475 83.0715 13.475C83.5882 14.475 83.8465 15.7583 83.8465 17.325C83.8465 18.875 83.5965 20.1583 83.0965 21.175C82.5965 22.175 81.9048 22.925 81.0215 23.425C80.1382 23.925 79.1215 24.175 77.9715 24.175ZM78.3465 21.5C79.0965 21.5 79.7632 21.3333 80.3465 21C80.9465 20.6667 81.4215 20.1833 81.7715 19.55C82.1382 18.9167 82.3215 18.175 82.3215 17.325C82.3215 16.4583 82.1382 15.7167 81.7715 15.1C81.4215 14.4667 80.9465 13.9833 80.3465 13.65C79.7632 13.3167 79.0965 13.15 78.3465 13.15C77.5965 13.15 76.9215 13.3167 76.3215 13.65C75.7382 13.9833 75.2632 14.4667 74.8965 15.1C74.5465 15.7167 74.3715 16.4583 74.3715 17.325C74.3715 18.175 74.5465 18.9167 74.8965 19.55C75.2632 20.1833 75.7382 20.6667 76.3215 21C76.9215 21.3333 77.5965 21.5 78.3465 21.5ZM82.3965 24V20.85L82.5215 17.3L82.2715 13.75V5.45H85.3715V24H82.3965ZM95.7596 24.175C94.2762 24.175 92.9762 23.8833 91.8596 23.3C90.7596 22.7 89.9012 21.8833 89.2846 20.85C88.6846 19.8167 88.3846 18.6417 88.3846 17.325C88.3846 15.9917 88.6762 14.8167 89.2596 13.8C89.8596 12.7667 90.6762 11.9583 91.7096 11.375C92.7596 10.7917 93.9512 10.5 95.2846 10.5C96.5846 10.5 97.7429 10.7833 98.7596 11.35C99.7762 11.9167 100.576 12.7167 101.16 13.75C101.743 14.7833 102.035 16 102.035 17.4C102.035 17.5333 102.026 17.6833 102.01 17.85C102.01 18.0167 102.001 18.175 101.985 18.325H90.8596V16.25H100.335L99.1096 16.9C99.1262 16.1333 98.9679 15.4583 98.6346 14.875C98.3012 14.2917 97.8429 13.8333 97.2596 13.5C96.6929 13.1667 96.0346 13 95.2846 13C94.5179 13 93.8429 13.1667 93.2596 13.5C92.6929 13.8333 92.2429 14.3 91.9096 14.9C91.5929 15.4833 91.4346 16.175 91.4346 16.975V17.475C91.4346 18.275 91.6179 18.9833 91.9846 19.6C92.3512 20.2167 92.8679 20.6917 93.5346 21.025C94.2012 21.3583 94.9679 21.525 95.8346 21.525C96.5846 21.525 97.2596 21.4083 97.8596 21.175C98.4596 20.9417 98.9929 20.575 99.4596 20.075L101.135 22C100.535 22.7 99.7762 23.2417 98.8596 23.625C97.9596 23.9917 96.9262 24.175 95.7596 24.175ZM109.161 24.175C108.045 24.175 106.97 24.0333 105.936 23.75C104.92 23.45 104.111 23.0917 103.511 22.675L104.711 20.3C105.311 20.6833 106.028 21 106.861 21.25C107.695 21.5 108.528 21.625 109.361 21.625C110.345 21.625 111.053 21.4917 111.486 21.225C111.936 20.9583 112.161 20.6 112.161 20.15C112.161 19.7833 112.011 19.5083 111.711 19.325C111.411 19.125 111.02 18.975 110.536 18.875C110.053 18.775 109.511 18.6833 108.911 18.6C108.328 18.5167 107.736 18.4083 107.136 18.275C106.553 18.125 106.02 17.9167 105.536 17.65C105.053 17.3667 104.661 16.9917 104.361 16.525C104.061 16.0583 103.911 15.4417 103.911 14.675C103.911 13.825 104.153 13.0917 104.636 12.475C105.12 11.8417 105.795 11.3583 106.661 11.025C107.545 10.675 108.586 10.5 109.786 10.5C110.686 10.5 111.595 10.6 112.511 10.8C113.428 11 114.186 11.2833 114.786 11.65L113.586 14.025C112.953 13.6417 112.311 13.3833 111.661 13.25C111.028 13.1 110.395 13.025 109.761 13.025C108.811 13.025 108.103 13.1667 107.636 13.45C107.186 13.7333 106.961 14.0917 106.961 14.525C106.961 14.925 107.111 15.225 107.411 15.425C107.711 15.625 108.103 15.7833 108.586 15.9C109.07 16.0167 109.603 16.1167 110.186 16.2C110.786 16.2667 111.378 16.375 111.961 16.525C112.545 16.675 113.078 16.8833 113.561 17.15C114.061 17.4 114.461 17.7583 114.761 18.225C115.061 18.6917 115.211 19.3 115.211 20.05C115.211 20.8833 114.961 21.6083 114.461 22.225C113.978 22.8417 113.286 23.325 112.386 23.675C111.486 24.0083 110.411 24.175 109.161 24.175ZM122.928 24.175C121.461 24.175 120.328 23.8 119.528 23.05C118.728 22.2833 118.328 21.1583 118.328 19.675V7.7H121.453V19.6C121.453 20.2333 121.611 20.725 121.928 21.075C122.261 21.425 122.719 21.6 123.303 21.6C124.003 21.6 124.586 21.4167 125.053 21.05L125.928 23.275C125.561 23.575 125.111 23.8 124.578 23.95C124.044 24.1 123.494 24.175 122.928 24.175ZM116.128 13.25V10.75H125.028V13.25H116.128ZM138.682 14.55H147.407V17.3H138.682V14.55ZM138.957 24H135.707V6.5H148.482V9.225H138.957V24ZM151.325 24V10.65H154.45V24H151.325ZM152.9 8.45C152.317 8.45 151.834 8.26667 151.45 7.9C151.084 7.53333 150.9 7.09167 150.9 6.575C150.9 6.04167 151.084 5.6 151.45 5.25C151.834 4.88333 152.317 4.7 152.9 4.7C153.484 4.7 153.959 4.875 154.325 5.225C154.709 5.55833 154.9 5.98333 154.9 6.5C154.9 7.05 154.717 7.51667 154.35 7.9C153.984 8.26667 153.5 8.45 152.9 8.45ZM158.552 24V10.65H161.527V14.325L161.177 13.25C161.577 12.35 162.202 11.6667 163.052 11.2C163.919 10.7333 164.994 10.5 166.277 10.5V13.475C166.144 13.4417 166.019 13.425 165.902 13.425C165.785 13.4083 165.669 13.4 165.552 13.4C164.369 13.4 163.427 13.75 162.727 14.45C162.027 15.1333 161.677 16.1583 161.677 17.525V24H158.552ZM173.175 24.175C172.058 24.175 170.983 24.0333 169.95 23.75C168.933 23.45 168.125 23.0917 167.525 22.675L168.725 20.3C169.325 20.6833 170.042 21 170.875 21.25C171.708 21.5 172.542 21.625 173.375 21.625C174.358 21.625 175.067 21.4917 175.5 21.225C175.95 20.9583 176.175 20.6 176.175 20.15C176.175 19.7833 176.025 19.5083 175.725 19.325C175.425 19.125 175.033 18.975 174.55 18.875C174.067 18.775 173.525 18.6833 172.925 18.6C172.342 18.5167 171.75 18.4083 171.15 18.275C170.567 18.125 170.033 17.9167 169.55 17.65C169.067 17.3667 168.675 16.9917 168.375 16.525C168.075 16.0583 167.925 15.4417 167.925 14.675C167.925 13.825 168.167 13.0917 168.65 12.475C169.133 11.8417 169.808 11.3583 170.675 11.025C171.558 10.675 172.6 10.5 173.8 10.5C174.7 10.5 175.608 10.6 176.525 10.8C177.442 11 178.2 11.2833 178.8 11.65L177.6 14.025C176.967 13.6417 176.325 13.3833 175.675 13.25C175.042 13.1 174.408 13.025 173.775 13.025C172.825 13.025 172.117 13.1667 171.65 13.45C171.2 13.7333 170.975 14.0917 170.975 14.525C170.975 14.925 171.125 15.225 171.425 15.425C171.725 15.625 172.117 15.7833 172.6 15.9C173.083 16.0167 173.617 16.1167 174.2 16.2C174.8 16.2667 175.392 16.375 175.975 16.525C176.558 16.675 177.092 16.8833 177.575 17.15C178.075 17.4 178.475 17.7583 178.775 18.225C179.075 18.6917 179.225 19.3 179.225 20.05C179.225 20.8833 178.975 21.6083 178.475 22.225C177.992 22.8417 177.3 23.325 176.4 23.675C175.5 24.0083 174.425 24.175 173.175 24.175ZM186.941 24.175C185.475 24.175 184.341 23.8 183.541 23.05C182.741 22.2833 182.341 21.1583 182.341 19.675V7.7H185.466V19.6C185.466 20.2333 185.625 20.725 185.941 21.075C186.275 21.425 186.733 21.6 187.316 21.6C188.016 21.6 188.6 21.4167 189.066 21.05L189.941 23.275C189.575 23.575 189.125 23.8 188.591 23.95C188.058 24.1 187.508 24.175 186.941 24.175ZM180.141 13.25V10.75H189.041V13.25H180.141Z" fill="#D2A8FF"/>
<path d="M0 24V21H9V24H0ZM0 16.5V13.5H18V16.5H0ZM0 9V6H27V9H0Z" fill="#D2A8FF"/>
</svg>
