<svg width="204" height="30" viewBox="0 0 204 30" fill="none" xmlns="http://www.w3.org/2000/svg">
<path d="M44.35 24V6.5H47.025L58 19.975H56.675V6.5H59.9V24H57.225L46.25 10.525H47.575V24H44.35ZM70.5643 24.175C69.0809 24.175 67.7809 23.8833 66.6643 23.3C65.5643 22.7 64.7059 21.8833 64.0893 20.85C63.4893 19.8167 63.1893 18.6417 63.1893 17.325C63.1893 15.9917 63.4809 14.8167 64.0643 13.8C64.6643 12.7667 65.4809 11.9583 66.5143 11.375C67.5643 10.7917 68.7559 10.5 70.0893 10.5C71.3893 10.5 72.5476 10.7833 73.5643 11.35C74.5809 11.9167 75.3809 12.7167 75.9643 13.75C76.5476 14.7833 76.8393 16 76.8393 17.4C76.8393 17.5333 76.8309 17.6833 76.8143 17.85C76.8143 18.0167 76.8059 18.175 76.7893 18.325H65.6643V16.25H75.1393L73.9143 16.9C73.9309 16.1333 73.7726 15.4583 73.4393 14.875C73.1059 14.2917 72.6476 13.8333 72.0643 13.5C71.4976 13.1667 70.8393 13 70.0893 13C69.3226 13 68.6476 13.1667 68.0643 13.5C67.4976 13.8333 67.0476 14.3 66.7143 14.9C66.3976 15.4833 66.2393 16.175 66.2393 16.975V17.475C66.2393 18.275 66.4226 18.9833 66.7893 19.6C67.1559 20.2167 67.6726 20.6917 68.3393 21.025C69.0059 21.3583 69.7726 21.525 70.6393 21.525C71.3893 21.525 72.0643 21.4083 72.6643 21.175C73.2643 20.9417 73.7976 20.575 74.2643 20.075L75.9393 22C75.3393 22.7 74.5809 23.2417 73.6643 23.625C72.7643 23.9917 71.7309 24.175 70.5643 24.175ZM82.5469 24L77.6469 10.65H80.5969L84.7969 22.425H83.3969L87.7969 10.65H90.4219L94.6969 22.425H93.3219L97.6469 10.65H100.422L95.4969 24H92.4969L88.5969 13.575H89.5219L85.5469 24H82.5469ZM108.479 24.175C106.996 24.175 105.696 23.8833 104.579 23.3C103.479 22.7 102.621 21.8833 102.004 20.85C101.404 19.8167 101.104 18.6417 101.104 17.325C101.104 15.9917 101.396 14.8167 101.979 13.8C102.579 12.7667 103.396 11.9583 104.429 11.375C105.479 10.7917 106.671 10.5 108.004 10.5C109.304 10.5 110.463 10.7833 111.479 11.35C112.496 11.9167 113.296 12.7167 113.879 13.75C114.463 14.7833 114.754 16 114.754 17.4C114.754 17.5333 114.746 17.6833 114.729 17.85C114.729 18.0167 114.721 18.175 114.704 18.325H103.579V16.25H113.054L111.829 16.9C111.846 16.1333 111.688 15.4583 111.354 14.875C111.021 14.2917 110.563 13.8333 109.979 13.5C109.413 13.1667 108.754 13 108.004 13C107.238 13 106.563 13.1667 105.979 13.5C105.413 13.8333 104.963 14.3 104.629 14.9C104.313 15.4833 104.154 16.175 104.154 16.975V17.475C104.154 18.275 104.338 18.9833 104.704 19.6C105.071 20.2167 105.588 20.6917 106.254 21.025C106.921 21.3583 107.688 21.525 108.554 21.525C109.304 21.525 109.979 21.4083 110.579 21.175C111.179 20.9417 111.713 20.575 112.179 20.075L113.854 22C113.254 22.7 112.496 23.2417 111.579 23.625C110.679 23.9917 109.646 24.175 108.479 24.175ZM121.881 24.175C120.764 24.175 119.689 24.0333 118.656 23.75C117.639 23.45 116.831 23.0917 116.231 22.675L117.431 20.3C118.031 20.6833 118.748 21 119.581 21.25C120.414 21.5 121.248 21.625 122.081 21.625C123.064 21.625 123.773 21.4917 124.206 21.225C124.656 20.9583 124.881 20.6 124.881 20.15C124.881 19.7833 124.731 19.5083 124.431 19.325C124.131 19.125 123.739 18.975 123.256 18.875C122.773 18.775 122.231 18.6833 121.631 18.6C121.048 18.5167 120.456 18.4083 119.856 18.275C119.273 18.125 118.739 17.9167 118.256 17.65C117.773 17.3667 117.381 16.9917 117.081 16.525C116.781 16.0583 116.631 15.4417 116.631 14.675C116.631 13.825 116.873 13.0917 117.356 12.475C117.839 11.8417 118.514 11.3583 119.381 11.025C120.264 10.675 121.306 10.5 122.506 10.5C123.406 10.5 124.314 10.6 125.231 10.8C126.148 11 126.906 11.2833 127.506 11.65L126.306 14.025C125.673 13.6417 125.031 13.3833 124.381 13.25C123.748 13.1 123.114 13.025 122.481 13.025C121.531 13.025 120.823 13.1667 120.356 13.45C119.906 13.7333 119.681 14.0917 119.681 14.525C119.681 14.925 119.831 15.225 120.131 15.425C120.431 15.625 120.823 15.7833 121.306 15.9C121.789 16.0167 122.323 16.1167 122.906 16.2C123.506 16.2667 124.098 16.375 124.681 16.525C125.264 16.675 125.798 16.8833 126.281 17.15C126.781 17.4 127.181 17.7583 127.481 18.225C127.781 18.6917 127.931 19.3 127.931 20.05C127.931 20.8833 127.681 21.6083 127.181 22.225C126.698 22.8417 126.006 23.325 125.106 23.675C124.206 24.0083 123.131 24.175 121.881 24.175ZM135.647 24.175C134.181 24.175 133.047 23.8 132.247 23.05C131.447 22.2833 131.047 21.1583 131.047 19.675V7.7H134.172V19.6C134.172 20.2333 134.331 20.725 134.647 21.075C134.981 21.425 135.439 21.6 136.022 21.6C136.722 21.6 137.306 21.4167 137.772 21.05L138.647 23.275C138.281 23.575 137.831 23.8 137.297 23.95C136.764 24.1 136.214 24.175 135.647 24.175ZM128.847 13.25V10.75H137.747V13.25H128.847ZM151.402 14.55H160.127V17.3H151.402V14.55ZM151.677 24H148.427V6.5H161.202V9.225H151.677V24ZM164.045 24V10.65H167.17V24H164.045ZM165.62 8.45C165.037 8.45 164.553 8.26667 164.17 7.9C163.803 7.53333 163.62 7.09167 163.62 6.575C163.62 6.04167 163.803 5.6 164.17 5.25C164.553 4.88333 165.037 4.7 165.62 4.7C166.203 4.7 166.678 4.875 167.045 5.225C167.428 5.55833 167.62 5.98333 167.62 6.5C167.62 7.05 167.437 7.51667 167.07 7.9C166.703 8.26667 166.22 8.45 165.62 8.45ZM171.272 24V10.65H174.247V14.325L173.897 13.25C174.297 12.35 174.922 11.6667 175.772 11.2C176.638 10.7333 177.713 10.5 178.997 10.5V13.475C178.863 13.4417 178.738 13.425 178.622 13.425C178.505 13.4083 178.388 13.4 178.272 13.4C177.088 13.4 176.147 13.75 175.447 14.45C174.747 15.1333 174.397 16.1583 174.397 17.525V24H171.272ZM185.895 24.175C184.778 24.175 183.703 24.0333 182.67 23.75C181.653 23.45 180.845 23.0917 180.245 22.675L181.445 20.3C182.045 20.6833 182.761 21 183.595 21.25C184.428 21.5 185.261 21.625 186.095 21.625C187.078 21.625 187.786 21.4917 188.22 21.225C188.67 20.9583 188.895 20.6 188.895 20.15C188.895 19.7833 188.745 19.5083 188.445 19.325C188.145 19.125 187.753 18.975 187.27 18.875C186.786 18.775 186.245 18.6833 185.645 18.6C185.061 18.5167 184.47 18.4083 183.87 18.275C183.286 18.125 182.753 17.9167 182.27 17.65C181.786 17.3667 181.395 16.9917 181.095 16.525C180.795 16.0583 180.645 15.4417 180.645 14.675C180.645 13.825 180.886 13.0917 181.37 12.475C181.853 11.8417 182.528 11.3583 183.395 11.025C184.278 10.675 185.32 10.5 186.52 10.5C187.42 10.5 188.328 10.6 189.245 10.8C190.161 11 190.92 11.2833 191.52 11.65L190.32 14.025C189.686 13.6417 189.045 13.3833 188.395 13.25C187.761 13.1 187.128 13.025 186.495 13.025C185.545 13.025 184.836 13.1667 184.37 13.45C183.92 13.7333 183.695 14.0917 183.695 14.525C183.695 14.925 183.845 15.225 184.145 15.425C184.445 15.625 184.836 15.7833 185.32 15.9C185.803 16.0167 186.336 16.1167 186.92 16.2C187.52 16.2667 188.111 16.375 188.695 16.525C189.278 16.675 189.811 16.8833 190.295 17.15C190.795 17.4 191.195 17.7583 191.495 18.225C191.795 18.6917 191.945 19.3 191.945 20.05C191.945 20.8833 191.695 21.6083 191.195 22.225C190.711 22.8417 190.02 23.325 189.12 23.675C188.22 24.0083 187.145 24.175 185.895 24.175ZM199.661 24.175C198.194 24.175 197.061 23.8 196.261 23.05C195.461 22.2833 195.061 21.1583 195.061 19.675V7.7H198.186V19.6C198.186 20.2333 198.344 20.725 198.661 21.075C198.994 21.425 199.453 21.6 200.036 21.6C200.736 21.6 201.319 21.4167 201.786 21.05L202.661 23.275C202.294 23.575 201.844 23.8 201.311 23.95C200.778 24.1 200.228 24.175 199.661 24.175ZM192.861 13.25V10.75H201.761V13.25H192.861Z" fill="#D2A8FF"/>
<path d="M0 24V21H9V24H0ZM0 16.5V13.5H18V16.5H0ZM0 9V6H27V9H0Z" fill="#D2A8FF"/>
</svg>
